<svg width="17" height="21" viewBox="0 0 17 21" fill="none" xmlns="http://www.w3.org/2000/svg">
<g clip-path="url(#clip0_54_377)">
<path d="M10.9199 13.0631C11.0044 13.3105 11.1537 13.5585 11.3715 13.7431C11.3717 13.7434 11.3719 13.7436 11.372 13.744C11.2083 13.6802 11.0482 13.61 10.8927 13.5326C10.8552 13.4564 10.7797 13.4013 10.7035 13.3399C10.5584 13.2233 10.4545 13.0777 10.3085 12.9616C10.1653 12.8479 9.84449 12.8237 9.80681 13.0329C9.72483 13.4877 10.5214 13.7435 10.9453 13.6572C11.0455 13.7067 11.1469 13.753 11.2494 13.7966C11.0942 13.8239 10.9334 13.8653 10.7883 13.9033C10.6651 13.9356 10.4944 14.021 10.5549 14.151C10.6324 14.3174 10.8726 14.2879 11.0197 14.2368C11.2096 14.1708 11.3971 14.0395 11.5387 13.9111C11.8184 14.0142 12.1061 14.0992 12.4023 14.1706C12.203 14.1993 12 14.2399 11.8167 14.2751C11.6298 14.311 11.3664 14.3514 11.2741 14.5123C11.1666 14.6996 11.6164 14.7818 11.7349 14.7716C12.185 14.7328 12.5293 14.5071 12.8634 14.27C12.9334 14.2835 13.0038 14.2967 13.0747 14.3091C13.2068 14.3322 13.3512 14.3608 13.5028 14.3892C13.4308 14.4151 13.3593 14.4446 13.284 14.4607C13.1274 14.4943 12.9739 14.5344 12.8259 14.5895C12.6245 14.6645 12.4121 14.83 12.5983 15.0144C12.7688 15.1834 13.1239 14.9731 13.2693 14.8878C13.4443 14.7854 13.7029 14.6256 13.7798 14.4389C14.1943 14.5084 14.6372 14.5553 15.0172 14.4812C14.2077 14.9251 13.4142 15.3835 12.5331 15.737C12.259 15.847 11.98 15.9457 11.6969 16.0335C11.6932 16.0247 11.6845 16.0178 11.6704 16.0178C11.1678 16.0168 10.683 15.967 10.2099 15.8826C10.1506 15.8404 10.1054 15.7849 10.0791 15.7254C9.99891 15.5509 9.95475 14.5071 9.54069 14.6624C9.21301 14.7861 9.57643 15.4229 9.69569 15.566C9.78644 15.6722 9.90571 15.7753 10.0414 15.8521C9.73342 15.7912 9.43041 15.7157 9.13091 15.6286C9.06815 15.5706 9.01623 15.5032 8.97816 15.4337C8.90036 15.2896 8.51275 14.3022 8.22323 14.5558C8.00662 14.741 8.5604 15.2657 8.68899 15.3795C8.7531 15.4335 8.83447 15.5028 8.92465 15.5658C8.61446 15.4695 8.30774 15.3619 8.0029 15.2457C7.9819 15.2124 7.96213 15.1788 7.94153 15.1482C7.8035 14.9629 7.58209 14.3251 7.33147 14.295C7.05161 14.2619 7.33478 14.7242 7.39621 14.806C7.48622 14.9296 7.59859 15.0433 7.72956 15.1393C7.58896 15.0834 7.4486 15.0262 7.30846 14.9678C7.24638 14.9142 7.19452 14.847 7.1376 14.793C6.96107 14.6342 5.70324 13.9128 5.90584 14.4578C6.07808 14.9288 6.74414 14.9445 7.22208 15.0214C7.32603 15.0733 7.43175 15.1251 7.5393 15.1763C7.29388 15.1475 6.54546 15.1007 6.88087 15.375C7.09126 15.5481 7.61391 15.4276 7.9168 15.3499C8.19025 15.4713 8.47227 15.5862 8.7599 15.6888C8.74351 15.6907 8.72811 15.6925 8.7114 15.6945C8.51392 15.7151 7.45007 15.6136 7.52803 15.909C7.59834 16.1684 8.21745 16.0285 8.38858 15.98C8.58351 15.927 8.77267 15.85 8.94275 15.7521C9.23239 15.8489 9.5269 15.9316 9.82294 15.9947C9.54376 16.0074 9.27458 15.9347 8.9944 16.0055C8.82385 16.0489 8.39989 16.2385 8.70903 16.3755C9.02345 16.518 9.60632 16.3341 9.8913 16.2214C10.0027 16.1756 10.1015 16.1215 10.1969 16.0636C10.6248 16.1289 11.0531 16.1472 11.4724 16.1006C10.6286 16.3431 9.74943 16.4882 8.8507 16.5295C7.71144 16.5819 6.45478 16.4864 5.26843 16.1993C5.09146 16.0766 4.93346 15.9426 4.78855 15.8007C4.8086 15.7417 4.82153 15.6793 4.83696 15.6195C4.88116 15.4423 5.08965 14.6155 4.79044 14.5451C4.55335 14.4929 4.50643 15.2537 4.63788 15.6463C4.43948 15.4333 4.26202 15.2073 4.08641 14.9792C4.11049 14.9248 4.1436 14.8747 4.16737 14.8209C4.21805 14.6897 4.35423 14.0776 4.11705 14.0338C3.8091 13.9857 3.8841 14.5887 3.98725 14.8504C3.86708 14.6944 3.74534 14.5389 3.61622 14.3871C3.5842 14.2945 3.54588 14.2023 3.52938 14.1061C3.49942 13.9063 3.48871 13.7438 3.30633 13.5843C3.04207 13.3661 2.85349 13.5137 2.92734 13.7936C2.99002 14.0168 3.14505 14.1584 3.36181 14.2761C3.40742 14.3014 3.45408 14.3253 3.49785 14.3519C3.61771 14.5154 3.73205 14.6822 3.84674 14.8488C3.79966 14.8114 3.75272 14.7742 3.70391 14.7392C3.61742 14.6699 3.44023 14.516 3.30876 14.5281C3.15282 14.5478 3.18679 14.6622 3.25234 14.7596C3.40992 14.9845 3.71614 14.9911 3.98421 15.0465C4.05668 15.1497 4.13018 15.2523 4.20661 15.353C4.24955 15.4096 4.29591 15.4704 4.34514 15.5327C4.30639 15.5096 4.26804 15.4852 4.22907 15.4578C4.11447 15.3757 3.3769 15.0092 3.54489 15.3943C3.65768 15.6715 4.23024 15.8028 4.57603 15.8034C4.68082 15.9154 4.79569 16.0214 4.92034 16.1084C4.14171 15.8921 3.40292 15.589 2.75815 15.1865C2.76164 15.1798 2.76338 15.1725 2.76104 15.1637C2.70834 14.9737 2.81732 14.03 2.42611 14.0823C2.07988 14.1288 2.33052 14.7209 2.52943 15.0369C2.37803 14.9328 2.23197 14.8235 2.09335 14.7072C2.06915 14.4915 2.07888 14.2489 2.00559 14.0406C1.9689 13.9365 1.83063 13.8055 1.70791 13.913C1.62304 13.9874 1.66665 14.1256 1.717 14.236C1.7327 14.2771 1.75326 14.3183 1.7777 14.3585C1.79838 14.3995 1.82155 14.4423 1.84718 14.4854C1.77626 14.4177 1.70755 14.3483 1.64114 14.2769C1.62232 14.2358 1.59599 14.1974 1.57649 14.1559C1.55045 14.1006 1.53441 14.0419 1.5125 13.9854C1.4881 13.9221 1.4532 13.861 1.41846 13.8014C1.3691 13.7169 1.26923 13.5328 1.13238 13.5438C0.97356 13.5566 1.03641 13.8362 1.06983 13.9092C1.14729 14.0789 1.35673 14.1852 1.53847 14.2759C1.55181 14.2905 1.56746 14.3031 1.58501 14.3138C1.65133 14.3881 1.71965 14.4603 1.7902 14.5304C1.5555 14.4219 1.20717 14.3028 1.14233 14.4587C1.08627 14.5935 1.2482 14.7315 1.38141 14.778C1.57264 14.8448 1.80888 14.7873 1.99395 14.7228C2.0957 14.8136 2.20153 14.9002 2.31039 14.9835C1.99478 14.9166 1.56408 14.8903 1.536 15.116C1.4865 15.5143 2.38112 15.3349 2.61999 15.2053C2.93426 15.4151 3.27175 15.5985 3.62658 15.7575C3.49807 15.7475 3.36756 15.7487 3.23655 15.7603C3.23548 15.7599 3.23535 15.759 3.23426 15.7587C2.98153 15.6821 2.90104 15.4339 2.66354 15.344C2.52426 15.2912 2.33669 15.307 2.33552 15.4636C2.33394 15.6699 2.63158 15.7779 2.89984 15.811C2.76832 15.838 2.63783 15.8727 2.51012 15.9138C2.35708 15.8335 2.22805 15.727 2.0706 15.6509C1.94314 15.5893 1.78698 15.5826 1.7409 15.7203C1.66534 15.9465 1.88942 16.0398 2.12543 16.0572C2.05836 16.0858 1.99299 16.1155 1.92907 16.1459C1.92312 16.1462 1.91709 16.1465 1.91063 16.1484C1.79966 16.1824 1.68297 16.152 1.57098 16.1769C1.5025 16.1921 1.44103 16.2255 1.38504 16.2612C1.29589 16.3181 1.18775 16.4157 1.22854 16.5197C1.27624 16.6412 1.51294 16.6011 1.60556 16.564C1.77562 16.4958 1.88845 16.3688 1.98326 16.2358C2.06325 16.2068 2.14258 16.176 2.22159 16.1444C2.187 16.1771 2.15503 16.2093 2.12675 16.2358C2.03132 16.3253 1.92128 16.4985 2.08925 16.5879C2.23102 16.6634 2.38275 16.5113 2.44342 16.4229C2.52564 16.3032 2.61048 16.1363 2.62122 15.9922C2.62948 15.9893 2.63767 15.9862 2.64591 15.9835C2.73004 15.9554 2.81427 15.932 2.89885 15.9117C2.83154 15.9692 2.77648 16.0376 2.73707 16.1103C2.68682 16.2027 2.6224 16.3502 2.71107 16.442C2.80966 16.5441 3.01173 16.4421 3.08442 16.372C3.22205 16.2395 3.23013 16.0192 3.2448 15.8504C3.42073 15.8294 3.59963 15.8221 3.78427 15.8279C3.78578 15.828 3.7863 15.8271 3.78767 15.8269C4.76959 16.2411 5.87161 16.478 6.96761 16.5851C6.67004 16.6361 6.36729 16.7188 6.07552 16.8088C5.98528 16.7875 5.89433 16.7628 5.8076 16.7259C5.60482 16.6401 4.90854 16.1212 4.75873 16.4948C4.59543 16.9013 5.38095 16.9138 5.88822 16.8677C5.70368 16.927 5.52522 16.987 5.35751 17.0411C5.21913 17.0859 5.07939 17.1266 4.93926 17.1657C4.87494 17.1445 4.81426 17.1105 4.7622 17.0753C4.6073 16.9842 4.49793 16.8571 4.32209 16.7941C4.17484 16.739 3.75993 16.647 3.69059 16.8369C3.61951 17.0417 4.0146 17.2023 4.1823 17.2343C4.30775 17.2581 4.44398 17.2669 4.57967 17.2639C4.27008 17.3475 3.96237 17.4322 3.66564 17.5407C3.60144 17.5357 3.53755 17.528 3.47442 17.5268C3.19808 17.5143 1.96039 17.7385 2.53555 18.0786C2.9964 18.3486 3.34131 17.9081 3.65026 17.6524C3.84129 17.591 4.03513 17.5363 4.23024 17.4845C4.20238 17.5102 4.17481 17.5361 4.14453 17.5586C4.02827 17.6428 3.43813 18.1438 3.79221 18.2499C4.07894 18.3409 4.36642 17.6458 4.44229 17.4287C4.71925 17.3567 4.99727 17.286 5.27092 17.2025C5.34547 17.1798 5.41853 17.1561 5.49179 17.1327C5.45573 17.1664 5.42023 17.2006 5.38202 17.2335C5.17076 17.4243 4.41922 17.8384 4.63505 18.1678C4.90472 18.5817 5.56424 17.254 5.64064 17.0854C5.94077 16.9881 6.238 16.8918 6.55406 16.8185C6.5148 16.8556 6.47676 16.8945 6.4391 16.9357C6.33115 17.051 6.21556 17.1302 6.09706 17.2345C5.94643 17.3606 5.61438 17.7764 5.76293 17.973C6.0431 18.3394 6.57493 17.0511 6.6571 16.795C6.91706 16.7378 7.1774 16.6863 7.43523 16.6234C7.81977 16.6485 8.2013 16.6588 8.57425 16.6555C9.5711 16.6467 10.5457 16.4908 11.4805 16.2249C11.3231 16.3504 11.1709 16.481 11.0238 16.6161C10.8507 16.6642 10.7278 16.7053 10.539 16.6972C10.3794 16.6904 10.2204 16.68 10.0607 16.6814C9.89221 16.6828 9.59611 16.7006 9.5481 16.877C9.48779 17.0985 9.831 17.1234 10.0065 17.1238C10.2597 17.1245 10.4891 17.0668 10.6806 16.9481C10.5603 17.0707 10.4434 17.196 10.3304 17.3239C9.94729 17.378 9.06441 17.1062 9.1477 17.6234C9.20731 17.9935 9.66062 17.8873 9.99503 17.7222C9.8905 17.8528 9.78959 17.9854 9.69164 18.1193C9.52061 18.2178 9.36057 18.3416 9.19609 18.4457C9.04492 18.5413 8.89212 18.6551 8.80379 18.7998C8.69915 18.9713 8.60619 19.2426 8.88134 19.3362C9.15549 19.4295 9.40381 19.2351 9.51665 19.0481C9.67544 18.785 9.69949 18.4674 9.78598 18.1823C9.91165 18.0335 10.0407 17.8874 10.1724 17.7435C10.1365 17.8665 10.1239 17.9977 10.1187 18.1089C10.1113 18.263 10.1172 18.5879 10.3554 18.6312C10.6121 18.678 10.6864 18.477 10.6639 18.3004C10.6463 18.162 10.5837 18.0241 10.5275 17.894C10.4652 17.7496 10.4243 17.6347 10.4075 17.4911C10.5716 17.3181 10.739 17.1472 10.9082 16.9771C10.8173 17.2916 10.8432 17.7454 11.1445 17.8858C11.3896 17.9999 11.5205 17.7615 11.5295 17.5968C11.5362 17.4736 11.4999 17.3589 11.4262 17.2528C11.3791 17.1851 11.3101 17.1278 11.2482 17.07C11.1623 16.9895 11.1166 16.8998 11.0831 16.8016C11.3008 16.5846 11.5206 16.3676 11.7399 16.1477C11.9462 16.0842 12.1506 16.0156 12.3526 15.9418C12.9514 15.723 13.5564 15.4615 14.1376 15.1654C14.0127 15.3082 13.9046 15.4704 13.8098 15.6404C13.8054 15.643 13.801 15.6452 13.7972 15.6488C13.5184 15.9099 13.1682 15.9765 12.8061 16.1236C12.5586 16.2242 12.3374 16.3744 12.3751 16.6311C12.4125 16.8861 12.7832 16.7932 12.9468 16.7199C13.1625 16.6231 13.3433 16.4703 13.4992 16.3004C13.4566 16.4025 13.4165 16.5018 13.3781 16.5944C13.3445 16.6757 13.3123 16.7574 13.2808 16.8394C13.279 16.8421 13.2785 16.8456 13.2771 16.8486C13.2696 16.8683 13.2623 16.8881 13.2548 16.9078C13.1696 16.9381 13.0921 16.9828 13.0036 17.0106C12.872 17.052 12.739 17.0894 12.6095 17.1359C12.4204 17.2037 12.1447 17.31 12.1214 17.5101C12.0978 17.7134 12.3765 17.7713 12.5496 17.718C12.7626 17.6524 12.9092 17.5283 13.0327 17.3835C13.0734 17.3459 13.1075 17.3059 13.1258 17.2665C13.0501 17.4857 12.9787 17.7062 12.9096 17.9272C12.9094 17.9274 12.9093 17.9274 12.9091 17.9275C12.8091 17.9916 12.675 17.9775 12.5677 18.0322C12.4882 18.0727 12.4169 18.1239 12.3493 18.1777C12.2516 18.2556 12.0859 18.3875 12.1398 18.5175C12.2045 18.6739 12.5079 18.5672 12.6002 18.5078C12.6687 18.4638 12.7282 18.4079 12.7801 18.3457C12.7624 18.4031 12.7449 18.4605 12.7271 18.5179C12.5353 18.7348 11.8175 19.4739 12.4009 19.5445C12.9125 19.6064 12.8371 18.8675 12.7908 18.59C12.8007 18.5655 12.8101 18.5407 12.8198 18.5161C12.8206 18.5146 12.8216 18.5131 12.8224 18.5117C12.8243 18.5082 12.8249 18.505 12.8253 18.5018C12.8614 18.4094 12.8965 18.3165 12.9306 18.2235C12.9591 18.3529 13.0445 18.4793 13.1287 18.5829C13.2078 18.68 13.413 18.8599 13.5643 18.7637C13.6854 18.6868 13.5237 18.4697 13.4745 18.396C13.4264 18.3241 13.3725 18.2547 13.3151 18.1879C13.2386 18.0992 13.1249 18.0437 13.0493 17.9537C13.0443 17.9477 13.0385 17.9432 13.0324 17.94C13.106 17.7301 13.1778 17.5198 13.2514 17.3096C13.2622 17.4349 13.2862 17.5602 13.3151 17.6828C13.3538 17.8475 13.4428 18.1854 13.6942 18.2091C13.9547 18.2337 14.0383 18.0187 13.967 17.8373C13.9109 17.6948 13.8198 17.5667 13.7261 17.4397C13.5819 17.2445 13.4919 17.1007 13.4384 16.8655C13.4359 16.8546 13.4306 16.8455 13.424 16.8375C13.5048 16.6282 13.5946 16.4258 13.6929 16.2283C13.7395 16.5295 13.9549 16.8232 14.1609 17.0604C14.2497 17.1627 14.6438 17.4552 14.7386 17.1914C14.8196 16.9666 14.5836 16.6828 14.4539 16.5013C14.2976 16.2823 14.1 16.0444 13.8909 15.8558C14.0589 15.5624 14.2492 15.2782 14.4606 14.9963C14.9812 14.7146 15.477 14.4048 15.9247 14.0721C15.9532 14.0508 15.9233 14.003 15.8876 14.0208C15.7162 14.1068 15.5475 14.1956 15.3797 14.2854C15.3735 14.2846 15.3672 14.2844 15.3609 14.2861C14.916 14.4012 14.4632 14.3898 14.0107 14.3362C13.9742 14.2564 13.9028 14.1962 13.8548 14.1171C13.8198 14.0593 13.8044 13.9991 13.7867 13.9364C13.7405 13.7729 13.6959 13.6092 13.6252 13.4514C13.5431 13.2681 13.2664 13.0452 13.0986 13.2991C13.0121 13.43 13.0608 13.5973 13.145 13.7505C13.1705 13.8025 13.2034 13.8537 13.2413 13.9026C13.2776 13.954 13.3142 14.0011 13.3456 14.0409C13.3928 14.1003 13.4746 14.1923 13.5712 14.2737C13.4096 14.2477 13.2483 14.22 13.0878 14.1938C13.0011 14.1797 12.9145 14.1642 12.8279 14.1481C12.7163 13.982 12.6042 13.8351 12.5575 13.6414C12.5162 13.4699 12.475 13.3008 12.4016 13.136C12.3342 12.9847 12.0281 12.6577 11.8076 12.8527C11.6135 13.0243 11.7896 13.3202 11.8978 13.499C11.9994 13.6669 12.1509 13.9036 12.3514 14.0468C12.1151 13.9903 11.8816 13.9243 11.6534 13.8471C11.6276 13.7349 11.5244 13.6419 11.503 13.523C11.478 13.3842 11.4598 13.2446 11.4295 13.1065C11.3938 12.9435 11.3331 12.6142 11.0777 12.6012C10.7912 12.586 10.8739 12.9287 10.9199 13.0631ZM1.47232 14.1872C1.47345 14.1871 1.47465 14.1871 1.47578 14.187C1.47705 14.1885 1.47832 14.1899 1.47949 14.1916C1.47711 14.19 1.47471 14.1886 1.47232 14.1872ZM1.58124 16.4815C1.58371 16.4802 1.58611 16.4788 1.5885 16.4775C1.59332 16.4759 1.59802 16.4741 1.60277 16.4724C1.59576 16.4756 1.58848 16.4784 1.58124 16.4815ZM10.2537 18.3846C10.2523 18.3859 10.251 18.3871 10.2498 18.3885C10.2483 18.3828 10.2466 18.3773 10.2454 18.3714C10.2478 18.3759 10.251 18.3801 10.2537 18.3846ZM12.2194 17.5364C12.2186 17.5369 12.2176 17.5375 12.2169 17.538C12.2168 17.5366 12.217 17.5349 12.2171 17.5334C12.2178 17.5344 12.2184 17.5355 12.2194 17.5364Z" fill="#219C90"/>
</g>
<g clip-path="url(#clip1_54_377)">
<path d="M5.90282 8.59366C5.83546 8.34748 5.70398 8.09627 5.50044 7.9023C5.50027 7.90194 5.50007 7.9017 5.49998 7.90135C5.65789 7.97427 5.81188 8.05318 5.96082 8.13885C5.99288 8.21545 6.06401 8.27412 6.13545 8.33888C6.27151 8.46196 6.36475 8.61049 6.50178 8.73312C6.63607 8.85322 6.95225 8.8981 7.0034 8.69712C7.11468 8.26019 6.34251 7.9584 5.91692 8.01419C5.82091 7.95938 5.72354 7.90756 5.62495 7.85836C5.78043 7.84214 5.94252 7.81258 6.08869 7.78528C6.21285 7.76197 6.38765 7.69033 6.33628 7.5598C6.27055 7.39288 6.03061 7.40557 5.88159 7.44544C5.68905 7.49706 5.49466 7.61231 5.34589 7.72778C5.07572 7.60882 4.79631 7.507 4.50761 7.41787C4.70692 7.40325 4.91069 7.37728 5.09464 7.35519C5.28211 7.33268 5.54566 7.31096 5.6478 7.16059C5.7666 6.98559 5.32656 6.87568 5.20848 6.87771C4.76004 6.88556 4.40411 7.08219 4.05746 7.2905C3.98899 7.27271 3.92016 7.2552 3.85069 7.23846C3.72146 7.20719 3.58022 7.16976 3.43198 7.13204C3.50498 7.11162 3.57782 7.08775 3.65347 7.07711C3.81081 7.05483 3.96546 7.02598 4.11568 6.98229C4.32022 6.92273 4.54156 6.77589 4.36931 6.58411C4.21152 6.40845 3.84594 6.58936 3.69619 6.66261C3.51616 6.75057 3.24941 6.88884 3.16084 7.06524C2.75486 6.97008 2.31926 6.89504 1.93797 6.94181C2.76914 6.56387 3.58543 6.17083 4.48167 5.8856C4.76036 5.79688 5.04327 5.71948 5.32952 5.65291C5.33261 5.66168 5.34079 5.66896 5.35474 5.66987C5.85252 5.70429 6.32949 5.78502 6.79251 5.89855C6.84849 5.94354 6.8896 6.00056 6.91171 6.06013C6.97959 6.23519 6.95432 7.25342 7.37474 7.12987C7.7075 7.03142 7.38961 6.38786 7.28094 6.24072C7.19807 6.13134 7.08674 6.02313 6.9574 5.93945C7.25846 6.01915 7.55362 6.11272 7.84453 6.21739C7.90286 6.27802 7.94983 6.34704 7.98295 6.41717C8.05049 6.56242 8.36917 7.54861 8.67271 7.32123C8.89952 7.15549 8.38566 6.60831 8.26581 6.48907C8.20588 6.43227 8.12985 6.35949 8.04468 6.29224C8.34558 6.40651 8.64229 6.53157 8.93658 6.66482C8.95517 6.69868 8.97254 6.7326 8.99092 6.76374C9.11539 6.9532 9.29255 7.58823 9.53881 7.63422C9.81384 7.68501 9.5639 7.21659 9.50847 7.13286C9.42747 7.00666 9.32369 6.88862 9.2003 6.78653C9.33587 6.85022 9.47113 6.9152 9.60608 6.9814C9.66404 7.0376 9.71096 7.10641 9.76377 7.16269C9.92814 7.32898 11.1264 8.11428 10.9617 7.57073C10.8223 7.1011 10.1635 7.04155 9.69519 6.93499C9.59566 6.87757 9.49435 6.82019 9.3912 6.76325C9.6324 6.80752 10.3707 6.90282 10.0566 6.61373C9.8596 6.43134 9.33391 6.51385 9.02875 6.56921C8.76591 6.433 8.49414 6.30243 8.21601 6.18356C8.23238 6.18272 8.24774 6.18206 8.26443 6.18121C8.46142 6.17426 9.50851 6.34378 9.45082 6.05125C9.39831 5.79432 8.7758 5.88917 8.60308 5.92495C8.40649 5.96354 8.21403 6.02585 8.03908 6.10982C7.75857 5.99633 7.47231 5.89639 7.18323 5.81526C7.46062 5.8215 7.72245 5.91012 8.00466 5.85993C8.17648 5.82897 8.60897 5.67278 8.3118 5.51903C8.00977 5.35951 7.42025 5.49955 7.13051 5.59026C7.01715 5.6274 6.91567 5.67343 6.81739 5.72342C6.39781 5.63143 5.9748 5.58508 5.55634 5.6025C6.4082 5.42279 7.28868 5.34021 8.18165 5.35979C9.31362 5.38459 10.5521 5.56113 11.7083 5.91922C11.8755 6.05038 12.0231 6.19124 12.1573 6.33892C12.1335 6.39494 12.1166 6.45473 12.0973 6.5119C12.0418 6.68133 11.7807 7.47165 12.0724 7.56001C12.3038 7.6265 12.4006 6.88966 12.2963 6.49904C12.4787 6.71945 12.6396 6.95104 12.7985 7.18458C12.771 7.23589 12.7349 7.28247 12.7078 7.33323C12.6489 7.45743 12.4736 8.04368 12.7056 8.10215C13.0075 8.16942 12.973 7.57791 12.8882 7.31646C12.9969 7.47616 13.1072 7.63552 13.2251 7.79178C13.2507 7.88403 13.2825 7.97625 13.2925 8.07088C13.309 8.2672 13.3088 8.42597 13.479 8.59327C13.7263 8.82308 13.9229 8.692 13.8682 8.41489C13.8209 8.19362 13.6767 8.04554 13.4697 7.91669C13.4262 7.88903 13.3816 7.86272 13.34 7.83389C13.2321 7.66694 13.1298 7.4971 13.0272 7.3274C13.0714 7.36693 13.1155 7.40624 13.1615 7.44353C13.2426 7.51662 13.4079 7.67816 13.5389 7.67513C13.6947 7.66635 13.6686 7.55279 13.6101 7.45372C13.4689 7.22446 13.166 7.19765 12.9041 7.12595C12.8392 7.02076 12.7732 6.91606 12.7041 6.813C12.6653 6.75509 12.6234 6.6929 12.5788 6.62904C12.6156 6.65406 12.652 6.6804 12.6888 6.70963C12.7969 6.79709 13.5033 7.20264 13.3623 6.81685C13.2689 6.53974 12.7104 6.37397 12.368 6.35037C12.2716 6.23444 12.1648 6.12376 12.0471 6.0308C12.804 6.29298 13.5158 6.63695 14.1279 7.07133C14.124 7.07759 14.1218 7.08462 14.1235 7.0933C14.1632 7.28166 13.9928 8.1923 14.3838 8.16742C14.7298 8.14526 14.5207 7.55266 14.3446 7.23208C14.4876 7.34337 14.6251 7.45943 14.7547 7.58171C14.7644 7.79316 14.7388 8.02847 14.7976 8.23594C14.827 8.33966 14.9554 8.47622 15.084 8.37984C15.173 8.31312 15.1389 8.17587 15.0964 8.06513C15.0835 8.0241 15.0659 7.98261 15.0443 7.94188C15.0266 7.9007 15.0064 7.85745 14.9839 7.81386C15.0497 7.8844 15.1132 7.9565 15.1742 8.03041C15.1901 8.07162 15.2137 8.11067 15.2303 8.15232C15.2524 8.20786 15.2644 8.26608 15.2824 8.32247C15.3024 8.38565 15.3329 8.44736 15.3634 8.50765C15.4067 8.59318 15.4934 8.77884 15.6297 8.77723C15.7879 8.77536 15.7441 8.49926 15.7158 8.42598C15.6503 8.25581 15.4499 8.13846 15.2759 8.03814C15.2636 8.02307 15.2489 8.00974 15.2323 7.99817C15.1715 7.92154 15.1086 7.84679 15.0433 7.77385C15.2686 7.89508 15.6058 8.03406 15.6803 7.88675C15.7448 7.75932 15.5935 7.61436 15.4646 7.56025C15.2796 7.48254 15.0418 7.52273 14.8542 7.57316C14.7594 7.47811 14.6603 7.38684 14.558 7.29853C14.8662 7.3846 15.2911 7.43885 15.3338 7.22122C15.4092 6.83708 14.5112 6.95207 14.266 7.06222C13.9685 6.8373 13.6464 6.6364 13.3054 6.45823C13.432 6.47644 13.5614 6.48395 13.6919 6.48138C13.693 6.48189 13.693 6.48277 13.6941 6.48315C13.9394 6.57445 14.0027 6.82116 14.232 6.92444C14.3665 6.98506 14.5533 6.98213 14.5648 6.8299C14.58 6.62938 14.2924 6.50455 14.0288 6.45447C14.1609 6.43698 14.2924 6.41187 14.4217 6.38047C14.5679 6.46871 14.6887 6.58092 14.8397 6.66537C14.9618 6.73375 15.1161 6.75064 15.1708 6.61978C15.2606 6.40482 15.0448 6.29922 14.8122 6.26652C14.8805 6.24324 14.9472 6.21862 15.0126 6.1933C15.0185 6.19341 15.0245 6.1936 15.031 6.19214C15.1432 6.16649 15.2567 6.20381 15.3693 6.18703C15.4382 6.1768 15.5013 6.14842 15.5591 6.11735C15.6512 6.068 15.7647 5.98019 15.7312 5.87641C15.692 5.75502 15.4549 5.77825 15.3607 5.80817C15.1877 5.86319 15.0675 5.97925 14.9648 6.10233C14.8837 6.12515 14.8031 6.14987 14.7227 6.17531C14.7591 6.14584 14.7929 6.11668 14.8227 6.09276C14.9231 6.01203 15.0436 5.85087 14.8831 5.75274C14.7477 5.66993 14.5873 5.80778 14.5214 5.88969C14.432 6.00061 14.337 6.1574 14.3168 6.29677C14.3084 6.29907 14.3001 6.30151 14.2918 6.30362C14.2066 6.32536 14.1216 6.34251 14.0365 6.35661C14.1069 6.30521 14.166 6.2423 14.2099 6.17418C14.2657 6.0877 14.3393 5.94849 14.2575 5.85333C14.1666 5.74744 13.9597 5.83321 13.8831 5.89654C13.738 6.01632 13.7154 6.22998 13.6897 6.39322C13.5141 6.40198 13.3364 6.39716 13.1539 6.37919C13.1524 6.37901 13.1518 6.37992 13.1504 6.37996C12.2052 5.91178 11.1292 5.60809 10.0506 5.43099C10.3488 5.40112 10.6541 5.34089 10.9491 5.27275C11.0371 5.29942 11.1255 5.32954 11.209 5.37119C11.4042 5.46818 12.0596 6.01912 12.2327 5.66576C12.4213 5.28128 11.644 5.21682 11.1385 5.22793C11.3252 5.18253 11.506 5.13606 11.6757 5.09454C11.8157 5.06024 11.9568 5.02994 12.0982 5.00117C12.1605 5.02612 12.2184 5.06323 12.2676 5.10086C12.415 5.19983 12.515 5.33066 12.685 5.40365C12.8272 5.46704 13.2321 5.58412 13.3134 5.40408C13.3973 5.20963 13.0166 5.02706 12.8526 4.98483C12.7299 4.95337 12.5955 4.9357 12.4609 4.9296C12.7731 4.86889 13.0835 4.80695 13.3846 4.72115C13.4479 4.73035 13.5106 4.74208 13.5731 4.74745C13.846 4.77799 15.0868 4.64226 14.5396 4.27316C14.1009 3.97991 13.7302 4.38544 13.4072 4.61356C13.2139 4.66055 13.0183 4.70084 12.8216 4.73827C12.8509 4.71514 12.8799 4.69176 12.9114 4.67195C13.0321 4.59776 13.6498 4.14974 13.3061 4.02296C13.0281 3.9154 12.6974 4.57229 12.6079 4.77843C12.3288 4.83001 12.0487 4.88035 11.7721 4.94329C11.6968 4.96043 11.6228 4.97861 11.5487 4.99649C11.5867 4.96613 11.6241 4.93522 11.6641 4.90582C11.886 4.73429 12.6578 4.38146 12.4658 4.04675C12.2261 3.62623 11.485 4.8737 11.3982 5.03266C11.0944 5.10727 10.7936 5.18123 10.4757 5.23144C10.5171 5.19803 10.5573 5.16268 10.5973 5.12515C10.7119 5.02018 10.8316 4.95079 10.9559 4.8573C11.1134 4.74464 11.4699 4.36224 11.3357 4.16116C11.0824 3.78622 10.4704 5.0038 10.3721 5.2475C10.1108 5.28585 9.84952 5.31856 9.58997 5.36258C9.21072 5.31264 8.83347 5.27721 8.46382 5.2556C7.47581 5.19782 6.50009 5.28469 5.55652 5.48109C5.72078 5.36948 5.88016 5.25262 6.03482 5.13102C6.20945 5.09576 6.33393 5.0639 6.5204 5.08435C6.67802 5.1016 6.83483 5.12228 6.99315 5.13159C7.16011 5.1414 7.45459 5.14377 7.51381 4.97544C7.58819 4.76396 7.24987 4.71694 7.07604 4.70484C6.82532 4.68733 6.59429 4.72817 6.39671 4.83094C6.52401 4.71962 6.64805 4.60554 6.76844 4.48871C7.15151 4.4615 8.00808 4.78467 7.95978 4.27601C7.9252 3.91211 7.46915 3.98526 7.12698 4.12359C7.23915 4.00351 7.34787 3.8813 7.45376 3.75755C7.62969 3.67307 7.7964 3.56335 7.96621 3.47301C8.12227 3.39006 8.28115 3.28958 8.37821 3.15468C8.49321 2.99484 8.60322 2.73717 8.33686 2.62785C8.07146 2.51889 7.81264 2.69145 7.6885 2.86583C7.51381 3.11112 7.469 3.41847 7.36447 3.69002C7.23015 3.82636 7.09266 3.95989 6.95273 4.09107C6.99642 3.97382 7.01751 3.84703 7.03006 3.73923C7.04753 3.5898 7.06315 3.27349 6.83015 3.21547C6.5789 3.15293 6.492 3.34345 6.50262 3.5167C6.51089 3.65248 6.56378 3.79079 6.61087 3.92108C6.66306 4.06566 6.69595 4.18015 6.70312 4.32092C6.52915 4.47827 6.35199 4.63334 6.17316 4.78752C6.28403 4.48775 6.28832 4.04461 5.99914 3.88803C5.76391 3.76073 5.6185 3.98388 5.59871 4.14347C5.58391 4.26285 5.61231 4.37686 5.67826 4.48491C5.72049 4.55394 5.78507 4.6142 5.84248 4.67461C5.92227 4.75856 5.96162 4.84887 5.98835 4.94662C5.75831 5.14319 5.52629 5.33963 5.29453 5.53894C5.08597 5.58702 4.87896 5.64005 4.67399 5.69847C4.06633 5.87143 3.44974 6.08549 2.85452 6.33488C2.98769 6.20425 3.10542 6.05373 3.21064 5.89467C3.21508 5.89238 3.21967 5.8906 3.22365 5.88736C3.51707 5.65192 3.86833 5.61041 4.23679 5.49144C4.4886 5.41007 4.71762 5.27868 4.69728 5.0265C4.67702 4.77601 4.30374 4.84166 4.13681 4.90211C3.91676 4.98186 3.72759 5.11847 3.56194 5.27337C3.6108 5.17686 3.65715 5.08303 3.70128 4.99547C3.73994 4.91862 3.77724 4.84134 3.81389 4.76369C3.81582 4.76112 3.8166 4.75783 3.81811 4.75492C3.8269 4.7363 3.83541 4.7175 3.84412 4.69887C3.93059 4.67505 4.01032 4.63675 4.09974 4.61557C4.23291 4.58402 4.36708 4.55653 4.49848 4.51992C4.69023 4.46655 4.9704 4.38151 5.00666 4.18846C5.04353 3.99222 4.77124 3.91738 4.59622 3.95774C4.38094 4.00739 4.22749 4.11831 4.09562 4.25097C4.05276 4.2848 4.01635 4.32146 3.99566 4.35858C4.08514 4.15042 4.17043 3.94069 4.25344 3.73031C4.25371 3.73015 4.25379 3.73016 4.25404 3.73007C4.35726 3.67432 4.48924 3.69698 4.59906 3.65092C4.68048 3.6168 4.75457 3.57177 4.82501 3.52393C4.927 3.45467 5.09979 3.33736 5.05504 3.2074C5.00132 3.05094 4.69373 3.13458 4.59834 3.1862C4.52763 3.22439 4.46496 3.27481 4.4094 3.33185C4.43073 3.27723 4.45191 3.22259 4.47333 3.16793C4.67761 2.96969 5.43757 2.29858 4.86429 2.19114C4.36163 2.09686 4.38751 2.82054 4.41502 3.09353C4.40359 3.11675 4.39261 3.14018 4.38141 3.1635C4.38051 3.16489 4.37936 3.16631 4.37847 3.16764C4.37634 3.17085 4.3756 3.17395 4.37502 3.17701C4.33307 3.26453 4.29224 3.3525 4.25223 3.44074C4.23259 3.31294 4.15631 3.1843 4.07977 3.07799C4.00791 2.9783 3.81646 2.78964 3.66028 2.87317C3.53527 2.93987 3.681 3.16182 3.72492 3.23678C3.76783 3.30988 3.81657 3.381 3.86905 3.44973C3.93892 3.54116 4.04788 3.60264 4.11682 3.69519C4.12143 3.7014 4.12688 3.70614 4.13271 3.70973C4.04587 3.90892 3.96083 4.10876 3.8741 4.30824C3.87169 4.18566 3.85613 4.06223 3.83565 3.94101C3.80821 3.77832 3.74237 3.44374 3.49495 3.40394C3.23851 3.36263 3.14146 3.56624 3.20009 3.74742C3.24628 3.88978 3.32804 4.02041 3.41247 4.15014C3.54244 4.34958 3.62207 4.49544 3.65946 4.72776C3.6612 4.73859 3.66589 4.74777 3.67188 4.75602C3.57802 4.95418 3.47572 5.1451 3.36522 5.33061C3.33899 5.0346 3.14511 4.73457 2.95668 4.49012C2.87546 4.38477 2.50444 4.07398 2.39308 4.32431C2.29805 4.53759 2.51299 4.8293 2.62952 5.01448C2.76984 5.23789 2.94983 5.4824 3.14446 5.67979C2.95872 5.954 2.75137 6.21775 2.52335 6.47786C1.98906 6.71725 1.47742 6.98553 1.012 7.27938C0.982309 7.29821 1.00882 7.34669 1.04533 7.33175C1.22081 7.25949 1.39378 7.18432 1.56591 7.10814C1.57201 7.10936 1.57825 7.10993 1.58457 7.1087C2.03289 7.02634 2.48068 7.06761 2.92536 7.14981C2.9563 7.22986 3.02295 7.29315 3.06527 7.37328C3.09614 7.43189 3.10742 7.4914 3.12078 7.55354C3.15579 7.71567 3.18911 7.87785 3.24868 8.03609C3.3179 8.21984 3.57732 8.45501 3.76025 8.21923C3.85465 8.09766 3.81747 7.93168 3.74422 7.77708C3.72235 7.7248 3.69319 7.67286 3.65888 7.62275C3.62628 7.57037 3.59315 7.52206 3.56462 7.48131C3.52183 7.42038 3.44691 7.32548 3.35654 7.23984C3.51496 7.2759 3.67291 7.31356 3.83018 7.34977C3.9151 7.36922 3.99985 7.39005 4.08455 7.41148C4.18416 7.58041 4.28548 7.73082 4.31892 7.92224C4.34851 8.09187 4.37815 8.25908 4.43996 8.4242C4.49668 8.57585 4.77825 8.91433 5.00962 8.73927C5.2132 8.58531 5.0583 8.2858 4.96299 8.10469C4.87347 7.93462 4.73899 7.69426 4.54991 7.54166C4.78021 7.61233 5.00713 7.69204 5.22806 7.7823C5.24622 7.8932 5.34227 7.99048 5.35565 8.10763C5.37121 8.24429 5.37999 8.38123 5.40091 8.51757C5.42548 8.6785 5.4638 9.0028 5.71594 9.03244C5.99872 9.06631 5.93945 8.72751 5.90282 8.59366ZM15.3355 8.12888C15.3344 8.12889 15.3332 8.12876 15.3321 8.12884C15.3309 8.12731 15.3298 8.12577 15.3287 8.12412C15.331 8.12577 15.3332 8.12729 15.3355 8.12888ZM15.3793 5.89006C15.3768 5.89119 15.3743 5.89232 15.3718 5.89346C15.367 5.89466 15.3622 5.89615 15.3574 5.89749C15.3645 5.89479 15.3719 5.8926 15.3793 5.89006ZM6.91451 3.46212C6.91601 3.46096 6.91734 3.45984 6.9187 3.45859C6.91981 3.46421 6.92111 3.46967 6.92194 3.47552C6.91983 3.47093 6.91694 3.46669 6.91451 3.46212ZM4.91137 4.15633C4.91218 4.15586 4.91322 4.15543 4.91395 4.15495C4.91393 4.15635 4.91364 4.15792 4.91345 4.15936C4.91275 4.15837 4.91223 4.15728 4.91137 4.15633Z" fill="#219C90"/>
</g>
<circle cx="9" cy="11" r="3" fill="#B80000"/>
<defs>
<clipPath id="clip0_54_377">
<rect width="14.9447" height="5.823" fill="white" transform="matrix(0.999977 0.00678283 -0.00954976 0.999954 1.05561 14)"/>
</clipPath>
<clipPath id="clip1_54_377">
<rect width="14.841" height="5.67522" fill="white" transform="matrix(-0.999982 0.00601718 -0.00888364 -0.999961 15.8912 7.67505)"/>
</clipPath>
</defs>
</svg>
