<svg width="132" height="36" viewBox="0 0 132 36" fill="none" xmlns="http://www.w3.org/2000/svg">
<path d="M16.74 17.38H7.62V28H1.66V1.6H7.62V12.16H16.74V1.6H22.68V28H16.74V17.38ZM23.8269 28V11.58H29.9069V28H23.8269ZM26.9469 8.2C25.9869 8.2 25.1735 7.86667 24.5069 7.2C23.8402 6.52 23.5069 5.71333 23.5069 4.78C23.5069 3.84667 23.8402 3.04 24.5069 2.36C25.1869 1.66666 26.0002 1.32 26.9469 1.32C27.5735 1.32 28.1469 1.48 28.6669 1.8C29.1869 2.10667 29.6069 2.52 29.9269 3.04C30.2469 3.56 30.4069 4.14 30.4069 4.78C30.4069 5.71333 30.0669 6.52 29.3869 7.2C28.7069 7.86667 27.8935 8.2 26.9469 8.2ZM29.0156 11.58H35.5156L39.4756 22.48L43.4556 11.58H49.9156L43.0356 28H35.9156L29.0156 11.58ZM53.6106 21.08C53.6506 21.6667 53.8373 22.1867 54.1706 22.64C54.504 23.0933 54.964 23.4533 55.5506 23.72C56.1506 23.9733 56.8573 24.1 57.6706 24.1C58.444 24.1 59.1373 24.02 59.7506 23.86C60.3773 23.7 60.9173 23.5 61.3706 23.26C61.8373 23.02 62.1973 22.7733 62.4506 22.52L64.8106 26.28C64.4773 26.64 64.004 26.9933 63.3906 27.34C62.7906 27.6733 61.9973 27.9467 61.0106 28.16C60.024 28.3733 58.7773 28.48 57.2706 28.48C55.4573 28.48 53.844 28.14 52.4306 27.46C51.0173 26.78 49.904 25.78 49.0906 24.46C48.2773 23.14 47.8706 21.5267 47.8706 19.62C47.8706 18.02 48.2173 16.58 48.9106 15.3C49.6173 14.0067 50.6373 12.9867 51.9706 12.24C53.304 11.48 54.9106 11.1 56.7906 11.1C58.5773 11.1 60.124 11.4267 61.4306 12.08C62.7506 12.7333 63.764 13.7067 64.4706 15C65.1906 16.28 65.5506 17.88 65.5506 19.8C65.5506 19.9067 65.544 20.12 65.5306 20.44C65.5306 20.76 65.5173 20.9733 65.4906 21.08H53.6106ZM59.8306 17.9C59.8173 17.4733 59.704 17.0533 59.4906 16.64C59.2773 16.2133 58.9573 15.8667 58.5306 15.6C58.104 15.32 57.5573 15.18 56.8906 15.18C56.224 15.18 55.6573 15.3133 55.1906 15.58C54.7373 15.8333 54.3906 16.1667 54.1506 16.58C53.9106 16.9933 53.7773 17.4333 53.7506 17.9H59.8306ZM70.6125 7.08L71.0525 7.16V28H65.0725V1.6H73.2325L83.9325 22.4L83.4925 22.48V1.6H89.4725V28H81.2725L70.6125 7.08ZM95.2388 21.08C95.2788 21.6667 95.4654 22.1867 95.7988 22.64C96.1321 23.0933 96.5921 23.4533 97.1788 23.72C97.7788 23.9733 98.4854 24.1 99.2988 24.1C100.072 24.1 100.765 24.02 101.379 23.86C102.005 23.7 102.545 23.5 102.999 23.26C103.465 23.02 103.825 22.7733 104.079 22.52L106.439 26.28C106.105 26.64 105.632 26.9933 105.019 27.34C104.419 27.6733 103.625 27.9467 102.639 28.16C101.652 28.3733 100.405 28.48 98.8988 28.48C97.0854 28.48 95.4721 28.14 94.0588 27.46C92.6454 26.78 91.5321 25.78 90.7188 24.46C89.9054 23.14 89.4988 21.5267 89.4988 19.62C89.4988 18.02 89.8454 16.58 90.5388 15.3C91.2454 14.0067 92.2654 12.9867 93.5988 12.24C94.9321 11.48 96.5388 11.1 98.4188 11.1C100.205 11.1 101.752 11.4267 103.059 12.08C104.379 12.7333 105.392 13.7067 106.099 15C106.819 16.28 107.179 17.88 107.179 19.8C107.179 19.9067 107.172 20.12 107.159 20.44C107.159 20.76 107.145 20.9733 107.119 21.08H95.2388ZM101.459 17.9C101.445 17.4733 101.332 17.0533 101.119 16.64C100.905 16.2133 100.585 15.8667 100.159 15.6C99.7321 15.32 99.1854 15.18 98.5188 15.18C97.8521 15.18 97.2854 15.3133 96.8188 15.58C96.3654 15.8333 96.0188 16.1667 95.7788 16.58C95.5388 16.9933 95.4054 17.4333 95.3788 17.9H101.459ZM105.321 11.58H108.121V4.84H114.141V11.58H117.821V16.58H114.141V21.16C114.141 21.84 114.241 22.3933 114.441 22.82C114.641 23.2333 115.007 23.44 115.541 23.44C115.901 23.44 116.207 23.36 116.461 23.2C116.714 23.04 116.867 22.9333 116.921 22.88L119.001 27.2C118.907 27.28 118.614 27.4267 118.121 27.64C117.641 27.8533 117.027 28.0467 116.281 28.22C115.534 28.3933 114.701 28.48 113.781 28.48C112.141 28.48 110.787 28.02 109.721 27.1C108.654 26.1667 108.121 24.7333 108.121 22.8V16.58H105.321V11.58Z" fill="#26355D"/>
<circle cx="27" cy="5" r="3.5" fill="#219C90" stroke="#F9FAFE"/>
</svg>
