<svg width="355" height="426" viewBox="0 0 355 426" fill="none" xmlns="http://www.w3.org/2000/svg">
<g clip-path="url(#clip0_54_360)">
<path d="M120.787 166.468C118.976 161.074 115.835 155.681 111.307 151.695C111.302 151.687 111.298 151.682 111.295 151.675C114.675 153.03 117.985 154.527 121.201 156.183C121.994 157.842 123.561 159.03 125.144 160.355C128.16 162.872 130.337 166.034 133.372 168.539C136.346 170.992 142.94 171.441 143.649 166.852C145.192 156.874 128.758 151.473 120.083 153.469C118.01 152.41 115.914 151.421 113.797 150.493C116.974 149.857 120.264 148.91 123.23 148.042C125.749 147.302 129.228 145.391 127.945 142.559C126.304 138.937 121.38 139.643 118.377 140.797C114.498 142.291 110.689 145.213 107.821 148.059C102.049 145.87 96.1149 144.081 90.0116 142.592C94.0944 141.915 98.2496 140.976 102.003 140.158C105.828 139.325 111.223 138.376 113.069 134.83C115.217 130.703 105.959 129.015 103.529 129.268C94.2999 130.231 87.3018 135.258 80.5149 140.531C79.0733 140.253 77.6244 139.982 76.164 139.729C73.4467 139.256 70.4715 138.666 67.3514 138.081C68.8208 137.496 70.281 136.834 71.8219 136.463C75.0266 135.687 78.1644 134.77 81.1854 133.528C85.2988 131.835 89.6085 128.159 85.7288 124.168C82.1749 120.511 74.951 125.204 71.9904 127.107C68.431 129.393 63.1708 132.957 61.6482 137.062C53.1173 135.644 44.0106 134.729 36.2322 136.446C52.7139 126.524 68.8627 116.291 86.8446 108.331C92.4363 105.855 98.1343 103.625 103.92 101.632C103.998 101.823 104.179 101.972 104.469 101.967C114.787 101.864 124.756 102.834 134.495 104.563C135.725 105.472 136.671 106.676 137.229 107.971C138.929 111.772 140.157 134.614 148.61 131.109C155.299 128.321 147.642 114.47 145.149 111.366C143.253 109.063 140.773 106.835 137.963 105.189C144.305 106.445 150.549 108.021 156.725 109.854C158.031 111.109 159.118 112.572 159.921 114.084C161.563 117.218 169.825 138.739 175.69 133.115C180.08 129.005 168.549 117.657 165.874 115.197C164.542 114.031 162.85 112.535 160.979 111.179C167.377 113.209 173.707 115.488 180.001 117.954C180.442 118.68 180.859 119.409 181.291 120.074C184.182 124.097 188.924 138.004 194.079 138.602C199.835 139.256 193.879 129.207 192.592 127.43C190.706 124.746 188.364 122.286 185.646 120.216C188.549 121.404 191.449 122.622 194.344 123.867C195.635 125.024 196.72 126.482 197.905 127.649C201.579 131.084 227.624 146.562 223.297 134.681C219.616 124.411 205.936 124.235 196.101 122.671C193.951 121.561 191.764 120.454 189.54 119.36C194.588 119.928 209.967 120.765 202.997 114.844C198.624 111.106 187.931 113.876 181.737 115.652C176.085 113.064 170.26 110.618 164.323 108.444C164.659 108.397 164.975 108.355 165.317 108.307C169.365 107.805 191.237 109.762 189.546 103.314C188.022 97.6533 175.355 100.87 171.857 101.975C167.871 103.184 164.011 104.917 160.55 107.104C154.573 105.056 148.502 103.321 142.404 102.012C148.132 101.664 153.681 103.189 159.411 101.57C162.899 100.575 171.545 96.3181 165.156 93.3976C158.657 90.3563 146.747 94.5271 140.931 97.0668C138.659 98.0973 136.646 99.3062 134.706 100.598C125.901 99.2752 117.103 98.9803 108.508 100.105C125.756 94.5856 143.762 91.1905 162.2 90.0608C185.573 88.6283 211.402 90.4063 235.846 96.3936C239.517 99.0365 242.802 101.931 245.821 105.002C245.428 106.298 245.181 107.666 244.883 108.98C244.03 112.871 240.005 131.025 246.169 132.491C251.053 133.573 251.782 116.906 248.962 108.343C253.101 112.957 256.814 117.86 260.489 122.81C260.012 124.007 259.348 125.114 258.876 126.298C257.876 129.182 255.269 142.616 260.152 143.517C266.489 144.494 264.763 131.31 262.565 125.606C265.08 128.99 267.627 132.365 270.325 135.656C271.011 137.677 271.826 139.686 272.194 141.787C272.871 146.153 273.141 149.708 276.935 153.156C282.427 157.867 286.253 154.587 284.651 148.478C283.295 143.607 280.069 140.545 275.582 138.023C274.638 137.48 273.673 136.97 272.766 136.397C270.255 132.849 267.856 129.226 265.45 125.606C266.428 126.414 267.403 127.217 268.416 127.971C270.213 129.465 273.898 132.791 276.594 132.493C279.789 132.023 279.056 129.526 277.681 127.411C274.376 122.526 268.088 122.457 262.567 121.312C261.047 119.071 259.507 116.843 257.906 114.656C257.008 113.428 256.037 112.109 255.007 110.758C255.81 111.253 256.605 111.779 257.413 112.369C259.791 114.137 275.047 121.977 271.479 113.587C269.078 107.546 257.283 104.816 250.183 104.889C247.997 102.462 245.607 100.171 243.021 98.2969C259.073 102.838 274.334 109.289 287.695 117.94C287.625 118.087 287.592 118.248 287.643 118.44C288.783 122.587 286.837 143.276 294.852 142.032C301.946 140.928 296.618 128.027 292.437 121.159C295.577 123.399 298.609 125.756 301.491 128.267C302.054 132.984 301.93 138.298 303.498 142.84C304.284 145.11 307.163 147.942 309.649 145.558C311.369 143.908 310.431 140.895 309.363 138.49C309.028 137.594 308.593 136.696 308.079 135.822C307.642 134.931 307.153 133.998 306.613 133.062C308.09 134.526 309.522 136.029 310.908 137.576C311.307 138.471 311.859 139.304 312.272 140.207C312.824 141.412 313.171 142.695 313.639 143.926C314.159 145.305 314.894 146.633 315.626 147.929C316.665 149.768 318.772 153.773 321.579 153.498C324.835 153.178 323.459 147.073 322.75 145.482C321.108 141.787 316.775 139.512 313.016 137.571C312.737 137.255 312.412 136.982 312.049 136.753C310.664 135.144 309.239 133.58 307.769 132.062C312.621 134.38 319.809 136.9 321.092 133.471C322.202 130.505 318.835 127.525 316.086 126.54C312.139 125.125 307.307 126.442 303.527 127.901C301.41 125.939 299.211 124.069 296.95 122.272C303.45 123.658 312.301 124.126 312.808 119.179C313.701 110.445 295.39 114.597 290.526 117.494C284.009 112.98 277.024 109.048 269.69 105.657C272.331 105.843 275.01 105.784 277.696 105.497C277.718 105.506 277.721 105.526 277.744 105.533C282.956 107.146 284.685 112.559 289.589 114.469C292.464 115.59 296.31 115.196 296.286 111.767C296.255 107.251 290.111 104.961 284.594 104.303C287.285 103.679 289.954 102.886 292.563 101.956C295.73 103.675 298.411 105.975 301.667 107.601C304.303 108.917 307.511 109.025 308.415 105.999C309.896 101.028 305.267 99.0427 300.416 98.719C301.784 98.0778 303.117 97.4094 304.42 96.7277C304.542 96.7199 304.666 96.7136 304.798 96.6694C307.066 95.8982 309.471 96.5344 311.762 95.961C313.164 95.6111 314.415 94.8649 315.554 94.0676C317.367 92.8011 319.557 90.6356 318.687 88.3707C317.67 85.7217 312.823 86.6584 310.933 87.4936C307.463 89.0291 305.186 91.8388 303.28 94.7747C301.647 95.4282 300.028 96.1233 298.415 96.8339C299.115 96.1103 299.762 95.398 300.334 94.81C302.266 92.8261 304.472 89.0064 300.995 87.091C298.062 85.4748 294.993 88.8428 293.775 90.7926C292.124 93.433 290.434 97.1103 290.258 100.266C290.089 100.332 289.922 100.402 289.754 100.464C288.035 101.1 286.313 101.633 284.583 102.098C285.947 100.824 287.056 99.3115 287.843 97.7092C288.846 95.6749 290.123 92.4288 288.274 90.4417C286.219 88.2306 282.102 90.5142 280.631 92.0669C277.846 95.0033 277.748 99.8269 277.499 103.527C273.894 104.031 270.223 104.236 266.431 104.154C266.4 104.152 266.389 104.174 266.361 104.177C246.075 95.3545 223.377 90.4444 200.843 88.3729C206.936 87.1807 213.126 85.2959 219.089 83.2523C220.948 83.6951 222.823 84.214 224.615 84.9999C228.804 86.8288 243.259 98.0133 246.219 89.7978C249.447 80.8581 233.316 80.7798 222.916 81.9162C226.686 80.5718 230.332 79.214 233.758 77.9864C236.585 76.9724 239.442 76.0463 242.306 75.1538C243.633 75.6031 244.889 76.3324 245.969 77.0883C249.177 79.0455 251.462 81.7994 255.091 83.135C258.131 84.3044 266.678 86.2149 268.043 82.041C269.439 77.5402 261.278 74.1209 257.826 73.4634C255.243 72.9746 252.443 72.8147 249.659 72.9145C255.989 71.0071 262.28 69.0751 268.338 66.6255C269.658 66.7202 270.972 66.8727 272.268 66.8832C277.945 67.0879 303.286 61.8699 291.373 54.5669C281.829 48.7714 274.884 58.5022 268.62 64.1767C264.717 65.5683 260.754 66.814 256.764 67.9973C257.328 67.428 257.886 66.8537 258.501 66.3549C260.862 64.4817 272.823 53.3658 265.521 51.131C259.606 49.2108 253.919 64.4993 252.428 69.2719C246.764 70.9167 241.078 72.5356 235.486 74.4306C233.962 74.9466 232.47 75.4834 230.973 76.0139C231.703 75.2677 232.421 74.5099 233.195 73.7813C237.474 69.5511 252.775 60.296 248.243 53.1391C242.579 44.1449 229.448 73.3766 227.932 77.0883C221.8 79.2921 215.727 81.4762 209.261 83.1587C210.056 82.338 210.825 81.476 211.585 80.5654C213.766 78.0138 216.115 76.25 218.515 73.9386C221.569 71.1395 228.258 61.9519 225.147 57.6853C219.283 49.7351 208.761 78.0712 207.153 83.7001C201.834 85.0177 196.505 86.209 191.231 87.6503C183.328 87.1981 175.492 87.0671 167.837 87.2324C147.374 87.6737 127.413 91.3321 108.303 97.3863C111.497 94.599 114.581 91.7027 117.56 88.7084C121.098 87.6124 123.609 86.6805 127.487 86.8109C130.766 86.9204 134.033 87.1081 137.312 87.0385C140.77 86.965 146.844 86.501 147.775 82.628C148.945 77.7624 141.891 77.3037 138.288 77.3381C133.09 77.3862 128.398 78.7064 124.503 81.3543C126.935 78.6384 129.296 75.8664 131.576 73.0391C139.425 71.7573 157.635 77.4887 155.765 66.1849C154.427 58.098 145.154 60.5366 138.339 64.2346C140.445 61.3489 142.476 58.4219 144.445 55.4652C147.926 53.2648 151.174 50.5154 154.518 48.1946C157.592 46.0633 160.694 43.5345 162.463 40.3439C164.559 36.563 166.383 30.6006 160.706 28.6207C155.049 26.6472 150.011 30.9654 147.752 35.0876C144.573 40.8863 144.177 47.8465 142.489 54.1099C139.955 57.3985 137.35 60.6297 134.692 63.8125C135.391 61.1105 135.608 58.2346 135.681 55.799C135.785 52.4227 135.563 45.3131 130.661 44.4231C125.375 43.4641 123.912 47.8825 124.428 51.7428C124.832 54.7684 126.159 57.7723 127.354 60.6068C128.678 63.7521 129.552 66.2579 129.942 69.3971C126.627 73.2255 123.242 77.0086 119.821 80.7748C121.591 73.8682 120.918 63.939 114.689 60.941C109.622 58.5037 107.008 63.7555 106.875 67.3634C106.775 70.0622 107.556 72.5651 109.101 74.8683C110.09 76.3398 111.524 77.5756 112.811 78.8273C114.6 80.5669 115.566 82.5199 116.285 84.6615C111.882 89.4666 107.437 94.2723 103.003 99.1417C98.7867 100.584 94.6112 102.135 90.4871 103.803C78.26 108.743 65.9196 114.618 54.0802 121.247C56.6005 118.089 58.7685 114.512 60.6638 110.766C60.7514 110.707 60.8429 110.659 60.9193 110.579C66.5624 104.792 73.7308 103.246 81.1206 99.9356C86.1706 97.6714 90.6653 94.3276 89.8128 88.7171C88.9649 83.1443 81.3841 85.2695 78.0476 86.9162C73.6493 89.0882 69.985 92.479 66.837 96.2382C67.6782 93.9916 68.4723 91.8092 69.2313 89.7713C69.8962 87.9827 70.5323 86.187 71.1543 84.384C71.1896 84.3232 71.2 84.248 71.2261 84.1803C71.3753 83.748 71.5183 83.3121 71.6659 82.8796C73.4072 82.1946 74.9845 81.1969 76.7912 80.5658C79.4818 79.6255 82.1999 78.7745 84.8452 77.7239C88.7055 76.1924 94.3339 73.7962 94.7497 69.4103C95.1723 64.9518 89.4319 63.7542 85.8939 64.9653C81.5422 66.4549 78.5699 69.208 76.08 72.4097C75.2547 73.2425 74.5673 74.1271 74.2046 74.9946C75.6913 70.1768 77.0889 65.3312 78.4383 60.475C78.4436 60.471 78.4452 60.4712 78.4503 60.4687C80.482 59.0392 83.241 59.3147 85.4253 58.0907C87.0449 57.1836 88.4945 56.0455 89.8642 54.8506C91.8472 53.1209 95.207 50.1909 94.0615 47.3596C92.6853 43.951 86.4895 46.3638 84.6123 47.6869C83.2204 48.6662 82.0154 49.9051 80.9682 51.2798C81.314 50.0195 81.6566 48.7589 82.0042 47.4973C85.874 42.7001 100.384 26.3398 88.3842 24.9407C77.8621 23.7126 79.6387 39.8702 80.6746 45.934C80.4791 46.4739 80.293 47.0177 80.1022 47.5596C80.086 47.5924 80.0647 47.6262 80.0487 47.6575C80.0103 47.733 80.0003 47.8038 79.9937 47.8733C79.2794 49.9065 78.5889 51.9479 77.916 53.9939C77.2917 51.1669 75.4985 48.4207 73.7382 46.1747C72.086 44.0688 67.816 40.181 64.7407 42.3256C62.2787 44.0384 65.6634 48.7519 66.6975 50.353C67.7075 51.9145 68.8342 53.4214 70.0338 54.8679C71.631 56.7924 73.9823 57.9774 75.5623 59.9287C75.6679 60.0596 75.7884 60.1561 75.9146 60.2262C74.4669 64.8387 73.0576 69.4622 71.6127 74.0809C71.3525 71.3406 70.8197 68.6044 70.1895 65.9262C69.3443 62.3319 67.4126 54.9563 62.2449 54.4996C56.8886 54.0251 55.238 58.7542 56.7577 62.7078C57.9541 65.8143 59.8638 68.5954 61.8266 71.3517C64.8481 75.589 66.7399 78.7148 67.9096 83.8507C67.964 84.0902 68.0765 84.2874 68.2142 84.4617C66.62 89.0633 64.8396 93.5174 62.8807 97.8651C61.8316 91.2835 57.3203 84.9064 53.0166 79.7642C51.1617 77.5481 42.9811 71.241 41.1157 77.0413C39.5237 81.9835 44.4547 88.1375 47.1746 92.079C50.4503 96.8345 54.5802 101.993 58.9306 106.071C55.5736 112.536 51.7529 118.806 47.5002 125.03C36.8994 131.328 26.8152 138.233 17.7275 145.63C17.1479 146.104 17.7777 147.142 18.5043 146.744C21.9969 144.818 25.4329 142.831 28.8496 140.823C28.9776 140.84 29.107 140.842 29.2353 140.803C38.3338 138.172 47.6339 138.309 56.9402 139.369C57.7153 141.107 59.1978 142.407 60.2076 144.127C60.9445 145.385 61.2794 146.697 61.6614 148.065C62.6616 151.634 63.6269 155.207 65.1265 158.645C66.8688 162.637 72.6194 167.447 75.9847 161.847C77.7215 158.959 76.6701 155.308 74.8948 151.975C74.3542 150.843 73.6641 149.732 72.8708 148.67C72.1089 147.554 71.3432 146.531 70.6852 145.669C69.6986 144.38 67.9914 142.386 65.9816 140.627C69.3086 141.157 72.6289 141.723 75.9325 142.257C77.7162 142.543 79.4985 142.861 81.2812 143.192C83.6243 146.8 85.9709 149.989 86.989 154.216C87.8903 157.962 88.7885 161.654 90.3461 165.243C91.7756 168.538 98.1603 175.622 102.628 171.297C106.56 167.492 102.853 161.058 100.577 157.17C98.4399 153.52 95.2552 148.374 91.096 145.29C95.9641 146.467 100.778 147.854 105.486 149.487C106.051 151.938 108.198 153.947 108.675 156.547C109.231 159.579 109.647 162.63 110.312 165.646C111.095 169.206 112.442 176.399 117.689 176.62C123.576 176.882 121.772 169.401 120.787 166.468ZM314.401 139.498C314.378 139.5 314.354 139.499 314.33 139.503C314.304 139.471 314.277 139.438 314.253 139.403C314.302 139.436 314.352 139.466 314.401 139.498ZM311.458 89.2944C311.408 89.324 311.359 89.3537 311.31 89.3835C311.212 89.419 311.116 89.4607 311.019 89.4993C311.162 89.4262 311.31 89.3641 311.458 89.2944ZM132.824 49.7976C132.852 49.769 132.878 49.7415 132.904 49.7111C132.936 49.8351 132.973 49.955 133 50.0844C132.948 49.9855 132.881 49.8956 132.824 49.7976ZM92.7304 68.8582C92.7463 68.8463 92.767 68.8348 92.7813 68.8227C92.7832 68.8543 92.7799 68.8898 92.7784 68.9225C92.7623 68.9016 92.7498 68.878 92.7304 68.8582Z" fill="#219C90"/>
</g>
<g clip-path="url(#clip1_54_360)">
<path d="M219.525 253.672C221.265 259.089 224.336 264.524 228.811 268.568C228.815 268.576 228.82 268.581 228.822 268.588C225.46 267.189 222.171 265.649 218.976 263.951C218.205 262.282 216.654 261.073 215.088 259.728C212.106 257.172 209.97 253.982 206.968 251.437C204.027 248.945 197.439 248.409 196.67 252.989C194.997 262.947 211.358 268.562 220.059 266.679C222.118 267.765 224.201 268.782 226.305 269.738C223.12 270.332 219.819 271.235 216.842 272.065C214.313 272.772 210.809 274.637 212.055 277.486C213.649 281.129 218.581 280.488 221.599 279.373C225.498 277.93 229.344 275.058 232.249 272.249C237.992 274.514 243.902 276.38 249.985 277.948C245.894 278.572 241.727 279.457 237.963 280.226C234.128 281.009 228.721 281.887 226.828 285.409C224.626 289.507 233.862 291.316 236.295 291.095C245.536 290.253 252.599 285.317 259.454 280.134C260.892 280.431 262.337 280.721 263.794 280.993C266.505 281.501 269.473 282.13 272.585 282.755C271.108 283.321 269.639 283.965 268.093 284.316C264.879 285.049 261.729 285.925 258.692 287.128C254.557 288.766 250.2 292.386 254.027 296.428C257.533 300.13 264.817 295.532 267.803 293.668C271.392 291.429 276.698 287.934 278.274 283.849C286.786 285.379 295.88 286.413 303.68 284.798C287.07 294.503 270.788 304.525 252.704 312.248C247.08 314.651 241.354 316.806 235.543 318.723C235.467 318.531 235.287 318.38 234.998 318.381C224.679 318.349 214.724 317.249 205.009 315.393C203.79 314.468 202.86 313.251 202.319 311.949C200.669 308.127 199.74 285.27 191.242 288.664C184.517 291.365 191.992 305.315 194.444 308.451C196.31 310.779 198.761 313.038 201.549 314.721C195.224 313.383 189.001 311.724 182.85 309.811C181.56 308.539 180.492 307.062 179.709 305.54C178.109 302.385 170.129 280.758 164.19 286.305C159.747 290.356 171.128 301.855 173.771 304.349C175.088 305.533 176.761 307.051 178.614 308.431C172.243 306.317 165.943 303.956 159.681 301.407C159.25 300.676 158.843 299.942 158.419 299.271C155.581 295.21 151.021 281.242 145.875 280.578C140.128 279.848 145.952 289.974 147.215 291.768C149.066 294.476 151.376 296.967 154.067 299.072C151.179 297.846 148.296 296.591 145.417 295.307C144.141 294.134 143.075 292.662 141.906 291.479C138.277 287.997 112.436 272.179 116.608 284.115C120.155 294.433 133.83 294.788 143.645 296.48C145.78 297.619 147.952 298.754 150.161 299.877C145.122 299.243 129.754 298.205 136.647 304.217C140.971 308.011 151.699 305.381 157.916 303.687C163.533 306.349 169.326 308.871 175.234 311.121C174.897 311.164 174.581 311.202 174.238 311.246C170.184 311.694 148.339 309.452 149.946 315.922C151.395 321.602 164.104 318.551 167.616 317.492C171.617 316.335 175.499 314.653 178.989 312.511C184.938 314.637 190.987 316.452 197.066 317.84C191.334 318.113 185.806 316.516 180.055 318.06C176.554 319.009 167.854 323.152 174.204 326.156C180.663 329.282 192.626 325.267 198.475 322.804C200.761 321.803 202.789 320.621 204.745 319.354C213.533 320.792 222.326 321.202 230.935 320.19C213.616 325.484 195.568 328.643 177.116 329.531C153.727 330.658 127.923 328.542 103.559 322.236C99.9227 319.545 96.6759 316.608 93.6975 313.497C94.1079 312.206 94.372 310.842 94.6876 309.532C95.5911 305.652 99.8537 287.553 93.709 286.006C88.8399 284.86 87.8931 301.517 90.6006 310.116C86.5225 305.447 82.8741 300.496 79.2636 295.499C79.7568 294.308 80.4354 293.211 80.9223 292.033C81.96 289.162 84.7425 275.763 79.8719 274.798C73.5481 273.739 75.1011 286.944 77.2247 292.677C74.7541 289.259 72.2512 285.852 69.5967 282.525C68.9372 280.496 68.1486 278.477 67.8077 276.371C67.1881 271.996 66.9648 268.438 63.2167 264.941C57.7861 260.158 53.9176 263.388 55.44 269.517C56.7318 274.406 59.9178 277.51 64.3709 280.09C65.3078 280.645 66.2663 281.168 67.1657 281.752C69.6301 285.333 71.9815 288.988 74.3399 292.638C73.3724 291.818 72.4077 291.002 71.4049 290.235C69.6275 288.718 65.9862 285.343 63.2873 285.606C60.0859 286.034 60.7859 288.54 62.1338 290.674C65.3741 295.602 71.6614 295.752 77.1666 296.97C78.6568 299.231 80.1681 301.479 81.7396 303.686C82.6223 304.926 83.5756 306.257 84.5877 307.622C83.7916 307.116 83.0037 306.58 82.203 305.98C79.8484 304.18 64.6966 296.142 68.1542 304.578C70.4761 310.649 82.2345 313.534 89.3341 313.554C91.4882 316.009 93.8489 318.33 96.4102 320.239C80.4188 315.488 65.2436 308.837 51.9966 300.013C52.0682 299.866 52.1036 299.706 52.0554 299.514C50.9693 295.351 53.1862 274.691 45.1551 275.829C38.0476 276.84 43.2064 289.81 47.2972 296.732C44.1866 294.451 41.1853 292.054 38.3366 289.507C37.8352 284.782 38.0295 279.471 36.5202 274.909C35.7646 272.628 32.9228 269.758 30.4056 272.11C28.6646 273.737 29.5631 276.762 30.5994 279.181C30.9226 280.081 31.3456 280.985 31.8483 281.865C32.2738 282.762 32.7504 283.701 33.2776 284.644C31.82 283.162 30.4076 281.64 29.0427 280.074C28.6554 279.175 28.1138 278.334 27.7127 277.426C27.1768 276.214 26.8461 274.927 26.395 273.69C25.8927 272.304 25.1749 270.966 24.4602 269.661C23.4449 267.808 21.3906 263.776 18.5809 264.015C15.3204 264.292 16.6168 270.414 17.3046 272.015C18.8987 275.731 23.2012 278.063 26.9346 280.052C27.2089 280.372 27.5305 280.649 27.8911 280.883C29.2543 282.51 30.6585 284.092 32.1086 285.629C27.2875 283.248 20.133 280.634 18.8053 284.046C17.6571 286.998 20.9848 290.021 23.7208 291.043C27.6487 292.509 32.4979 291.255 36.2962 289.846C38.3873 291.835 40.5621 293.733 42.7988 295.56C36.3174 294.09 27.4738 293.505 26.9023 298.446C25.8947 307.167 44.2588 303.255 49.1603 300.422C55.6175 305.02 62.5508 309.044 69.8393 312.53C67.2007 312.31 64.521 312.334 61.8315 312.586C61.8096 312.576 61.8068 312.556 61.7845 312.549C56.5938 310.868 54.9357 305.433 50.0575 303.459C47.1967 302.301 43.3459 302.644 43.3254 306.073C43.2975 310.589 49.4107 312.959 54.9193 313.689C52.2197 314.278 49.5411 315.036 46.92 315.932C43.776 314.172 41.1245 311.836 37.8901 310.168C35.2719 308.817 32.0656 308.668 31.1225 311.682C29.576 316.633 34.1788 318.679 39.0248 319.066C37.6485 319.689 36.3069 320.34 34.9951 321.004C34.8729 321.011 34.7492 321.015 34.6165 321.058C32.3389 321.799 29.9425 321.132 27.6436 321.675C26.238 322.007 24.9766 322.736 23.8278 323.519C21.9986 324.761 19.7805 326.898 20.6203 329.174C21.6024 331.836 26.4613 330.963 28.362 330.153C31.8521 328.663 34.166 325.883 36.1096 322.972C37.7513 322.34 39.3795 321.666 41.0011 320.977C40.2916 321.691 39.6358 322.395 39.0558 322.975C37.0984 324.934 34.8429 328.724 38.2936 330.685C41.2059 332.34 44.318 329.012 45.5616 327.078C47.2471 324.46 48.9853 320.805 49.2028 317.651C49.3723 317.587 49.5405 317.52 49.7095 317.461C51.4363 316.847 53.1651 316.336 54.9013 315.894C53.5206 317.151 52.3914 318.648 51.5839 320.24C50.5542 322.261 49.2348 325.49 51.0574 327.501C53.0839 329.739 57.2303 327.509 58.7214 325.976C61.5442 323.076 61.7053 318.254 62.0028 314.558C65.6146 314.101 69.2874 313.945 73.0787 314.076C73.1097 314.078 73.1202 314.057 73.1484 314.054C93.3178 323.141 115.949 328.347 138.454 330.713C132.346 331.826 126.132 333.63 120.143 335.595C118.29 335.128 116.422 334.584 114.641 333.775C110.475 331.892 96.168 320.519 93.1005 328.695C89.7564 337.592 105.885 337.881 116.299 336.881C112.511 338.176 108.848 339.486 105.406 340.669C102.566 341.645 99.6978 342.534 96.8216 343.389C95.5006 342.922 94.2541 342.177 93.1843 341.407C90.0021 339.408 87.7537 336.624 84.142 335.241C81.1175 334.032 72.5967 332.01 71.1772 336.166C69.7224 340.648 77.8377 344.174 81.2815 344.876C83.8578 345.399 86.6549 345.595 89.4407 345.532C83.0863 347.356 76.7702 349.206 70.6804 351.576C69.3621 351.464 68.0501 351.294 66.7539 351.267C61.08 350.988 35.673 355.874 47.4893 363.332C56.9573 369.252 64.0293 359.613 70.367 354.021C74.2877 352.681 78.2664 351.487 82.2712 350.356C81.6998 350.918 81.1343 351.485 80.513 351.975C78.128 353.818 66.0223 364.776 73.2945 367.106C79.1836 369.104 85.0708 353.891 86.6238 349.138C92.3086 347.567 98.0153 346.023 103.632 344.201C105.162 343.705 106.662 343.188 108.165 342.677C107.426 343.414 106.698 344.162 105.914 344.881C101.58 349.054 86.159 358.109 90.5976 365.324C96.1434 374.392 109.655 345.334 111.22 341.643C117.38 339.519 123.481 337.415 129.969 335.817C129.163 336.627 128.383 337.479 127.611 338.38C125.397 340.903 123.025 342.636 120.595 344.915C117.505 347.674 110.696 356.774 113.751 361.081C119.511 369.107 130.402 340.911 132.084 335.303C137.42 334.055 142.764 332.934 148.056 331.562C155.952 332.117 163.786 332.351 171.443 332.286C191.91 332.112 211.917 328.715 231.104 322.911C227.874 325.657 224.753 328.512 221.735 331.467C218.182 332.517 215.659 333.416 211.783 333.235C208.507 333.083 205.242 332.852 201.962 332.879C198.504 332.907 192.425 333.292 191.443 337.152C190.209 342.002 197.256 342.553 200.86 342.566C206.058 342.585 210.766 341.327 214.696 338.73C212.228 341.414 209.832 344.155 207.514 346.952C199.65 348.131 181.517 342.162 183.238 353.489C184.47 361.593 193.775 359.276 200.637 355.667C198.494 358.525 196.425 361.425 194.417 364.356C190.907 366.511 187.624 369.217 184.25 371.494C181.148 373.585 178.013 376.073 176.203 379.24C174.058 382.994 172.155 388.932 177.807 390.986C183.437 393.033 188.531 388.781 190.844 384.689C194.099 378.932 194.586 371.978 196.355 365.737C198.932 362.482 201.579 359.285 204.279 356.137C203.544 358.83 203.29 361.703 203.185 364.137C203.037 367.512 203.165 374.624 208.055 375.578C213.328 376.606 214.849 372.207 214.383 368.34C214.019 365.309 212.731 362.288 211.574 359.439C210.291 356.276 209.45 353.759 209.101 350.615C212.466 346.83 215.9 343.092 219.37 339.371C217.51 346.254 218.053 356.191 224.242 359.27C229.277 361.773 231.959 356.556 232.14 352.95C232.275 350.253 231.527 347.74 230.012 345.417C229.042 343.933 227.624 342.678 226.353 341.41C224.588 339.647 223.647 337.682 222.956 335.531C227.422 330.784 231.93 326.036 236.427 321.225C240.662 319.838 244.857 318.342 249.003 316.728C261.293 311.949 273.709 306.235 285.635 299.762C283.073 302.887 280.859 306.435 278.914 310.156C278.826 310.214 278.734 310.261 278.657 310.339C272.938 316.052 265.75 317.504 258.318 320.718C253.239 322.916 248.701 326.2 249.48 331.822C250.254 337.405 257.862 335.379 261.22 333.776C265.647 331.662 269.355 328.319 272.552 324.602C271.681 326.837 270.859 329.009 270.073 331.037C269.385 332.817 268.725 334.604 268.08 336.398C268.044 336.459 268.032 336.534 268.005 336.601C267.85 337.032 267.702 337.466 267.548 337.896C265.798 338.558 264.208 339.535 262.393 340.143C259.691 341.048 256.962 341.863 254.303 342.879C250.423 344.36 244.764 346.682 244.291 351.062C243.81 355.515 249.534 356.787 253.087 355.623C257.458 354.19 260.466 351.476 262.998 348.307C263.834 347.485 264.533 346.61 264.907 345.747C263.357 350.545 261.896 355.372 260.484 360.21C260.478 360.214 260.477 360.214 260.471 360.216C258.421 361.619 255.666 361.308 253.466 362.503C251.835 363.389 250.37 364.508 248.985 365.685C246.98 367.388 243.582 370.274 244.69 373.12C246.022 376.546 252.249 374.215 254.143 372.916C255.547 371.955 256.769 370.732 257.834 369.372C257.471 370.627 257.112 371.883 256.748 373.14C252.816 377.886 238.093 394.055 250.074 395.611C260.579 396.977 259.014 380.797 258.057 374.721C258.26 374.183 258.453 373.642 258.651 373.103C258.668 373.07 258.689 373.037 258.706 373.005C258.745 372.93 258.756 372.86 258.763 372.79C259.504 370.767 260.221 368.735 260.921 366.698C261.508 369.532 263.265 372.302 264.996 374.571C266.621 376.698 270.84 380.641 273.943 378.537C276.427 376.857 273.104 372.099 272.091 370.485C271.102 368.91 269.995 367.389 268.814 365.927C267.242 363.981 264.906 362.766 263.352 360.794C263.248 360.662 263.129 360.564 263.004 360.492C264.512 355.899 265.981 351.294 267.487 346.695C267.711 349.438 268.208 352.181 268.803 354.867C269.601 358.472 271.436 365.873 276.597 366.397C281.947 366.941 283.659 362.234 282.192 358.261C281.036 355.139 279.163 352.333 277.236 349.552C274.27 345.275 272.42 342.125 271.317 336.974C271.266 336.734 271.156 336.535 271.021 336.359C272.675 331.779 274.513 327.348 276.529 323.027C277.492 329.622 281.919 336.057 286.155 341.255C287.981 343.495 296.079 349.909 298.02 344.134C299.676 339.213 294.826 332.995 292.158 329.018C288.945 324.22 284.883 319.008 280.586 314.873C284.027 308.452 287.93 302.233 292.263 296.065C302.946 289.906 313.119 283.134 322.303 275.857C322.889 275.391 322.273 274.344 321.541 274.733C318.023 276.613 314.562 278.554 311.119 280.517C310.991 280.499 310.862 280.496 310.733 280.533C301.601 283.045 292.303 282.785 283.012 281.604C282.26 279.856 280.794 278.537 279.807 276.804C279.087 275.537 278.769 274.22 278.405 272.847C277.451 269.266 276.533 265.68 275.078 262.223C273.388 258.208 267.701 253.323 264.263 258.879C262.489 261.744 263.492 265.408 265.224 268.764C265.749 269.903 266.425 271.024 267.204 272.096C267.952 273.221 268.704 274.254 269.35 275.125C270.32 276.427 272.001 278.442 273.988 280.228C270.668 279.655 267.355 279.046 264.059 278.468C262.279 278.158 260.501 277.817 258.723 277.463C256.427 273.825 254.123 270.605 253.16 266.365C252.308 262.608 251.458 258.904 249.947 255.296C248.561 251.982 242.27 244.815 237.745 249.082C233.764 252.834 237.387 259.316 239.612 263.233C241.701 266.912 244.818 272.098 248.936 275.237C244.084 273.996 239.289 272.547 234.602 270.852C234.069 268.394 231.949 266.357 231.506 263.751C230.99 260.712 230.614 257.656 229.988 254.631C229.252 251.061 227.999 243.851 222.755 243.561C216.873 243.223 218.578 250.727 219.525 253.672ZM25.5746 278.107C25.5978 278.105 25.6223 278.107 25.6457 278.103C25.6717 278.136 25.6977 278.169 25.7218 278.204C25.6729 278.17 25.6237 278.14 25.5746 278.107ZM27.8609 328.345C27.9117 328.316 27.9608 328.287 28.0099 328.258C28.1089 328.224 28.2052 328.183 28.3029 328.146C28.1589 328.217 28.0095 328.277 27.8609 328.345ZM205.963 370.175C205.934 370.203 205.908 370.231 205.882 370.261C205.851 370.136 205.816 370.016 205.791 369.886C205.841 369.986 205.907 370.076 205.963 370.175ZM246.302 351.641C246.286 351.652 246.265 351.664 246.251 351.676C246.25 351.644 246.253 351.608 246.255 351.576C246.271 351.597 246.283 351.621 246.302 351.641Z" fill="#219C90"/>
</g>
<path d="M94.1887 197.415H78.2287V216H67.7987V169.8H78.2287V188.28H94.1887V169.8H104.584V216H94.1887V197.415ZM106.591 216V187.265H117.231V216H106.591ZM112.051 181.35C110.371 181.35 108.947 180.767 107.781 179.6C106.614 178.41 106.031 176.998 106.031 175.365C106.031 173.732 106.614 172.32 107.781 171.13C108.971 169.917 110.394 169.31 112.051 169.31C113.147 169.31 114.151 169.59 115.061 170.15C115.971 170.687 116.706 171.41 117.266 172.32C117.826 173.23 118.106 174.245 118.106 175.365C118.106 176.998 117.511 178.41 116.321 179.6C115.131 180.767 113.707 181.35 112.051 181.35ZM115.671 187.265H127.046L133.976 206.34L140.941 187.265H152.246L140.206 216H127.746L115.671 187.265ZM158.712 203.89C158.782 204.917 159.109 205.827 159.692 206.62C160.276 207.413 161.081 208.043 162.107 208.51C163.157 208.953 164.394 209.175 165.817 209.175C167.171 209.175 168.384 209.035 169.457 208.755C170.554 208.475 171.499 208.125 172.292 207.705C173.109 207.285 173.739 206.853 174.182 206.41L178.312 212.99C177.729 213.62 176.901 214.238 175.827 214.845C174.777 215.428 173.389 215.907 171.662 216.28C169.936 216.653 167.754 216.84 165.117 216.84C161.944 216.84 159.121 216.245 156.647 215.055C154.174 213.865 152.226 212.115 150.802 209.805C149.379 207.495 148.667 204.672 148.667 201.335C148.667 198.535 149.274 196.015 150.487 193.775C151.724 191.512 153.509 189.727 155.842 188.42C158.176 187.09 160.987 186.425 164.277 186.425C167.404 186.425 170.111 186.997 172.397 188.14C174.707 189.283 176.481 190.987 177.717 193.25C178.977 195.49 179.607 198.29 179.607 201.65C179.607 201.837 179.596 202.21 179.572 202.77C179.572 203.33 179.549 203.703 179.502 203.89H158.712ZM169.597 198.325C169.574 197.578 169.376 196.843 169.002 196.12C168.629 195.373 168.069 194.767 167.322 194.3C166.576 193.81 165.619 193.565 164.452 193.565C163.286 193.565 162.294 193.798 161.477 194.265C160.684 194.708 160.077 195.292 159.657 196.015C159.237 196.738 159.004 197.508 158.957 198.325H169.597ZM188.466 179.39L189.236 179.53V216H178.771V169.8H193.051L211.776 206.2L211.006 206.34V169.8H221.471V216H207.121L188.466 179.39ZM231.561 203.89C231.631 204.917 231.958 205.827 232.541 206.62C233.125 207.413 233.93 208.043 234.956 208.51C236.006 208.953 237.243 209.175 238.666 209.175C240.02 209.175 241.233 209.035 242.306 208.755C243.403 208.475 244.348 208.125 245.141 207.705C245.958 207.285 246.588 206.853 247.031 206.41L251.161 212.99C250.578 213.62 249.75 214.238 248.676 214.845C247.626 215.428 246.238 215.907 244.511 216.28C242.785 216.653 240.603 216.84 237.966 216.84C234.793 216.84 231.97 216.245 229.496 215.055C227.023 213.865 225.075 212.115 223.651 209.805C222.228 207.495 221.516 204.672 221.516 201.335C221.516 198.535 222.123 196.015 223.336 193.775C224.573 191.512 226.358 189.727 228.691 188.42C231.025 187.09 233.836 186.425 237.126 186.425C240.253 186.425 242.96 186.997 245.246 188.14C247.556 189.283 249.33 190.987 250.566 193.25C251.826 195.49 252.456 198.29 252.456 201.65C252.456 201.837 252.445 202.21 252.421 202.77C252.421 203.33 252.398 203.703 252.351 203.89H231.561ZM242.446 198.325C242.423 197.578 242.225 196.843 241.851 196.12C241.478 195.373 240.918 194.767 240.171 194.3C239.425 193.81 238.468 193.565 237.301 193.565C236.135 193.565 235.143 193.798 234.326 194.265C233.533 194.708 232.926 195.292 232.506 196.015C232.086 196.738 231.853 197.508 231.806 198.325H242.446ZM249.205 187.265H254.105V175.47H264.64V187.265H271.08V196.015H264.64V204.03C264.64 205.22 264.815 206.188 265.165 206.935C265.515 207.658 266.156 208.02 267.09 208.02C267.72 208.02 268.256 207.88 268.7 207.6C269.143 207.32 269.411 207.133 269.505 207.04L273.145 214.6C272.981 214.74 272.468 214.997 271.605 215.37C270.765 215.743 269.691 216.082 268.385 216.385C267.078 216.688 265.62 216.84 264.01 216.84C261.14 216.84 258.771 216.035 256.905 214.425C255.038 212.792 254.105 210.283 254.105 206.9V196.015H249.205V187.265Z" fill="#26355D"/>
<path d="M54.359 247H51.239L48.095 234.292H48.563L45.407 247H42.287L38.867 231.16H41.747L44.003 243.7H43.967L47.267 231.16H49.391L52.691 243.7H52.643L54.911 231.16H57.791L54.359 247ZM66.1205 236.86C66.7765 236.86 67.4165 236.996 68.0405 237.268C68.6645 237.54 69.1765 237.976 69.5765 238.576C69.9845 239.168 70.1885 239.94 70.1885 240.892V247H67.6085V241.36C67.6085 240.472 67.4045 239.82 66.9965 239.404C66.5965 238.98 66.0645 238.768 65.4005 238.768C64.9605 238.768 64.5365 238.892 64.1285 239.14C63.7205 239.388 63.3845 239.724 63.1205 240.148C62.8645 240.572 62.7365 241.06 62.7365 241.612V247H60.1565V230.488H62.7365V238.804C62.8085 238.532 63.0005 238.248 63.3125 237.952C63.6325 237.648 64.0365 237.392 64.5245 237.184C65.0125 236.968 65.5445 236.86 66.1205 236.86ZM74.5882 242.68C74.6042 243.2 74.7282 243.668 74.9602 244.084C75.1922 244.5 75.5322 244.828 75.9802 245.068C76.4362 245.3 76.9922 245.416 77.6482 245.416C78.2162 245.416 78.7042 245.34 79.1122 245.188C79.5282 245.028 79.8722 244.84 80.1442 244.624C80.4162 244.4 80.6162 244.192 80.7442 244L81.8842 245.548C81.6362 245.884 81.3242 246.184 80.9482 246.448C80.5722 246.712 80.1042 246.916 79.5442 247.06C78.9922 247.212 78.3082 247.288 77.4922 247.288C76.4202 247.288 75.4882 247.068 74.6962 246.628C73.9042 246.188 73.2882 245.568 72.8482 244.768C72.4162 243.968 72.2002 243.032 72.2002 241.96C72.2002 241 72.4002 240.136 72.8002 239.368C73.2002 238.592 73.7802 237.98 74.5402 237.532C75.3082 237.084 76.2282 236.86 77.3002 236.86C78.3002 236.86 79.1682 237.06 79.9042 237.46C80.6402 237.86 81.2082 238.436 81.6082 239.188C82.0162 239.932 82.2202 240.832 82.2202 241.888C82.2202 241.952 82.2162 242.084 82.2082 242.284C82.2082 242.484 82.2002 242.616 82.1842 242.68H74.5882ZM79.8202 240.808C79.8122 240.552 79.7242 240.26 79.5562 239.932C79.3962 239.604 79.1362 239.32 78.7762 239.08C78.4162 238.832 77.9362 238.708 77.3362 238.708C76.7202 238.708 76.2202 238.828 75.8362 239.068C75.4522 239.3 75.1682 239.58 74.9842 239.908C74.8002 240.228 74.6922 240.528 74.6602 240.808H79.8202ZM86.8384 247H84.2824V237.148H86.8384V238.792H86.7784C86.8344 238.592 86.9864 238.344 87.2344 238.048C87.4904 237.744 87.8424 237.472 88.2904 237.232C88.7384 236.984 89.2784 236.86 89.9104 236.86C90.3664 236.86 90.7744 236.924 91.1344 237.052C91.4944 237.18 91.7504 237.308 91.9024 237.436L90.8704 239.548C90.7664 239.42 90.5704 239.296 90.2824 239.176C90.0024 239.048 89.6544 238.984 89.2384 238.984C88.7184 238.984 88.2784 239.136 87.9184 239.44C87.5664 239.744 87.2984 240.108 87.1144 240.532C86.9304 240.956 86.8384 241.352 86.8384 241.72V247ZM94.6742 242.68C94.6902 243.2 94.8142 243.668 95.0462 244.084C95.2782 244.5 95.6182 244.828 96.0662 245.068C96.5222 245.3 97.0782 245.416 97.7342 245.416C98.3022 245.416 98.7902 245.34 99.1982 245.188C99.6142 245.028 99.9582 244.84 100.23 244.624C100.502 244.4 100.702 244.192 100.83 244L101.97 245.548C101.722 245.884 101.41 246.184 101.034 246.448C100.658 246.712 100.19 246.916 99.6302 247.06C99.0782 247.212 98.3942 247.288 97.5782 247.288C96.5062 247.288 95.5742 247.068 94.7822 246.628C93.9902 246.188 93.3742 245.568 92.9342 244.768C92.5022 243.968 92.2862 243.032 92.2862 241.96C92.2862 241 92.4862 240.136 92.8862 239.368C93.2862 238.592 93.8662 237.98 94.6262 237.532C95.3942 237.084 96.3142 236.86 97.3862 236.86C98.3862 236.86 99.2542 237.06 99.9902 237.46C100.726 237.86 101.294 238.436 101.694 239.188C102.102 239.932 102.306 240.832 102.306 241.888C102.306 241.952 102.302 242.084 102.294 242.284C102.294 242.484 102.286 242.616 102.27 242.68H94.6742ZM99.9062 240.808C99.8982 240.552 99.8102 240.26 99.6422 239.932C99.4822 239.604 99.2222 239.32 98.8622 239.08C98.5022 238.832 98.0222 238.708 97.4222 238.708C96.8062 238.708 96.3062 238.828 95.9222 239.068C95.5382 239.3 95.2542 239.58 95.0702 239.908C94.8862 240.228 94.7782 240.528 94.7462 240.808H99.9062ZM118.514 244.792C119.426 244.792 120.222 244.668 120.902 244.42C121.59 244.164 122.09 243.912 122.402 243.664L123.482 245.824C123.122 246.144 122.494 246.468 121.598 246.796C120.702 247.124 119.63 247.288 118.382 247.288C117.214 247.288 116.126 247.08 115.118 246.664C114.11 246.248 113.226 245.672 112.466 244.936C111.706 244.192 111.114 243.324 110.69 242.332C110.266 241.34 110.054 240.264 110.054 239.104C110.054 237.944 110.266 236.864 110.69 235.864C111.114 234.864 111.702 233.992 112.454 233.248C113.214 232.504 114.098 231.924 115.106 231.508C116.122 231.084 117.214 230.872 118.382 230.872C119.63 230.872 120.702 231.036 121.598 231.364C122.494 231.692 123.122 232.016 123.482 232.336L122.402 234.496C122.09 234.248 121.59 234 120.902 233.752C120.222 233.496 119.426 233.368 118.514 233.368C117.65 233.368 116.866 233.512 116.162 233.8C115.458 234.088 114.854 234.492 114.35 235.012C113.846 235.532 113.458 236.14 113.186 236.836C112.914 237.524 112.778 238.268 112.778 239.068C112.778 239.876 112.914 240.628 113.186 241.324C113.458 242.02 113.846 242.628 114.35 243.148C114.854 243.668 115.458 244.072 116.162 244.36C116.866 244.648 117.65 244.792 118.514 244.792ZM130.532 247.288C129.5 247.288 128.58 247.064 127.772 246.616C126.972 246.16 126.344 245.544 125.888 244.768C125.432 243.984 125.204 243.096 125.204 242.104C125.204 241.112 125.432 240.22 125.888 239.428C126.344 238.636 126.972 238.012 127.772 237.556C128.58 237.092 129.5 236.86 130.532 236.86C131.564 236.86 132.476 237.092 133.268 237.556C134.06 238.012 134.68 238.636 135.128 239.428C135.584 240.22 135.812 241.112 135.812 242.104C135.812 243.096 135.584 243.984 135.128 244.768C134.68 245.544 134.06 246.16 133.268 246.616C132.476 247.064 131.564 247.288 130.532 247.288ZM130.532 245.128C131.108 245.128 131.608 244.996 132.032 244.732C132.456 244.468 132.784 244.108 133.016 243.652C133.248 243.196 133.364 242.676 133.364 242.092C133.364 241.508 133.248 240.988 133.016 240.532C132.784 240.068 132.456 239.7 132.032 239.428C131.608 239.156 131.108 239.02 130.532 239.02C129.956 239.02 129.452 239.156 129.02 239.428C128.596 239.7 128.264 240.068 128.024 240.532C127.792 240.988 127.676 241.508 127.676 242.092C127.676 242.676 127.792 243.196 128.024 243.652C128.264 244.108 128.596 244.468 129.02 244.732C129.452 244.996 129.956 245.128 130.532 245.128ZM143.872 236.86C144.536 236.86 145.18 236.996 145.804 237.268C146.428 237.54 146.94 237.976 147.34 238.576C147.748 239.168 147.952 239.94 147.952 240.892V247H145.372V241.36C145.372 240.472 145.16 239.82 144.736 239.404C144.32 238.98 143.78 238.768 143.116 238.768C142.676 238.768 142.256 238.892 141.856 239.14C141.456 239.388 141.128 239.724 140.872 240.148C140.624 240.572 140.5 241.06 140.5 241.612V247H137.932V237.148H140.5V238.804C140.572 238.532 140.764 238.248 141.076 237.952C141.396 237.648 141.8 237.392 142.288 237.184C142.776 236.968 143.304 236.86 143.872 236.86ZM156.412 236.86C157.076 236.86 157.72 236.996 158.344 237.268C158.968 237.54 159.48 237.976 159.88 238.576C160.288 239.168 160.492 239.94 160.492 240.892V247H157.912V241.36C157.912 240.472 157.7 239.82 157.276 239.404C156.86 238.98 156.32 238.768 155.656 238.768C155.216 238.768 154.796 238.892 154.396 239.14C153.996 239.388 153.668 239.724 153.412 240.148C153.164 240.572 153.04 241.06 153.04 241.612V247H150.472V237.148H153.04V238.804C153.112 238.532 153.304 238.248 153.616 237.952C153.936 237.648 154.34 237.392 154.828 237.184C155.316 236.968 155.844 236.86 156.412 236.86ZM164.823 242.68C164.839 243.2 164.963 243.668 165.195 244.084C165.427 244.5 165.767 244.828 166.215 245.068C166.671 245.3 167.227 245.416 167.883 245.416C168.451 245.416 168.939 245.34 169.347 245.188C169.763 245.028 170.107 244.84 170.379 244.624C170.651 244.4 170.851 244.192 170.979 244L172.119 245.548C171.871 245.884 171.559 246.184 171.183 246.448C170.807 246.712 170.339 246.916 169.779 247.06C169.227 247.212 168.543 247.288 167.727 247.288C166.655 247.288 165.723 247.068 164.931 246.628C164.139 246.188 163.523 245.568 163.083 244.768C162.651 243.968 162.435 243.032 162.435 241.96C162.435 241 162.635 240.136 163.035 239.368C163.435 238.592 164.015 237.98 164.775 237.532C165.543 237.084 166.463 236.86 167.535 236.86C168.535 236.86 169.403 237.06 170.139 237.46C170.875 237.86 171.443 238.436 171.843 239.188C172.251 239.932 172.455 240.832 172.455 241.888C172.455 241.952 172.451 242.084 172.443 242.284C172.443 242.484 172.435 242.616 172.419 242.68H164.823ZM170.055 240.808C170.047 240.552 169.959 240.26 169.791 239.932C169.631 239.604 169.371 239.32 169.011 239.08C168.651 238.832 168.171 238.708 167.571 238.708C166.955 238.708 166.455 238.828 166.071 239.068C165.687 239.3 165.403 239.58 165.219 239.908C165.035 240.228 164.927 240.528 164.895 240.808H170.055ZM179.497 245.212C180.065 245.212 180.525 245.12 180.877 244.936C181.237 244.744 181.469 244.604 181.573 244.516L182.785 246.316C182.689 246.396 182.489 246.516 182.185 246.676C181.881 246.828 181.493 246.968 181.021 247.096C180.557 247.224 180.029 247.288 179.437 247.288C178.461 247.288 177.573 247.084 176.773 246.676C175.981 246.26 175.345 245.664 174.865 244.888C174.393 244.104 174.157 243.164 174.157 242.068C174.157 240.964 174.393 240.024 174.865 239.248C175.345 238.472 175.981 237.88 176.773 237.472C177.573 237.064 178.461 236.86 179.437 236.86C180.021 236.86 180.541 236.928 180.997 237.064C181.461 237.192 181.845 237.34 182.149 237.508C182.453 237.676 182.657 237.808 182.761 237.904L181.525 239.704C181.469 239.648 181.353 239.56 181.177 239.44C181.009 239.312 180.785 239.196 180.505 239.092C180.225 238.988 179.889 238.936 179.497 238.936C179.017 238.936 178.557 239.064 178.117 239.32C177.677 239.576 177.317 239.94 177.037 240.412C176.757 240.876 176.617 241.428 176.617 242.068C176.617 242.708 176.757 243.264 177.037 243.736C177.317 244.208 177.677 244.572 178.117 244.828C178.557 245.084 179.017 245.212 179.497 245.212ZM183.734 237.148H185.582V233.104H188.126V237.148H190.562V239.308H188.126V243.52C188.126 244.048 188.214 244.444 188.39 244.708C188.574 244.972 188.834 245.104 189.17 245.104C189.45 245.104 189.67 245.052 189.83 244.948C189.998 244.844 190.098 244.772 190.13 244.732L191.078 246.592C191.03 246.64 190.89 246.72 190.658 246.832C190.426 246.944 190.126 247.048 189.758 247.144C189.39 247.24 188.97 247.288 188.498 247.288C187.666 247.288 186.97 247.04 186.41 246.544C185.858 246.048 185.582 245.272 185.582 244.216V239.308H183.734V237.148ZM192.946 247V237.148H195.502V247H192.946ZM194.254 234.196C193.822 234.196 193.45 234.04 193.138 233.728C192.834 233.416 192.682 233.044 192.682 232.612C192.682 232.18 192.834 231.808 193.138 231.496C193.45 231.176 193.822 231.016 194.254 231.016C194.542 231.016 194.806 231.092 195.046 231.244C195.294 231.388 195.49 231.58 195.634 231.82C195.786 232.052 195.862 232.316 195.862 232.612C195.862 233.044 195.706 233.416 195.394 233.728C195.082 234.04 194.702 234.196 194.254 234.196ZM203.188 247.288C202.156 247.288 201.236 247.064 200.428 246.616C199.628 246.16 199 245.544 198.544 244.768C198.088 243.984 197.86 243.096 197.86 242.104C197.86 241.112 198.088 240.22 198.544 239.428C199 238.636 199.628 238.012 200.428 237.556C201.236 237.092 202.156 236.86 203.188 236.86C204.22 236.86 205.132 237.092 205.924 237.556C206.716 238.012 207.336 238.636 207.784 239.428C208.24 240.22 208.468 241.112 208.468 242.104C208.468 243.096 208.24 243.984 207.784 244.768C207.336 245.544 206.716 246.16 205.924 246.616C205.132 247.064 204.22 247.288 203.188 247.288ZM203.188 245.128C203.764 245.128 204.264 244.996 204.688 244.732C205.112 244.468 205.44 244.108 205.672 243.652C205.904 243.196 206.02 242.676 206.02 242.092C206.02 241.508 205.904 240.988 205.672 240.532C205.44 240.068 205.112 239.7 204.688 239.428C204.264 239.156 203.764 239.02 203.188 239.02C202.612 239.02 202.108 239.156 201.676 239.428C201.252 239.7 200.92 240.068 200.68 240.532C200.448 240.988 200.332 241.508 200.332 242.092C200.332 242.676 200.448 243.196 200.68 243.652C200.92 244.108 201.252 244.468 201.676 244.732C202.108 244.996 202.612 245.128 203.188 245.128ZM216.529 236.86C217.193 236.86 217.837 236.996 218.461 237.268C219.085 237.54 219.597 237.976 219.997 238.576C220.405 239.168 220.609 239.94 220.609 240.892V247H218.029V241.36C218.029 240.472 217.817 239.82 217.393 239.404C216.977 238.98 216.437 238.768 215.773 238.768C215.333 238.768 214.913 238.892 214.513 239.14C214.113 239.388 213.785 239.724 213.529 240.148C213.281 240.572 213.157 241.06 213.157 241.612V247H210.589V237.148H213.157V238.804C213.229 238.532 213.421 238.248 213.733 237.952C214.053 237.648 214.457 237.392 214.945 237.184C215.433 236.968 215.961 236.86 216.529 236.86ZM227.088 236.86C227.64 236.86 228.152 236.912 228.624 237.016C229.096 237.12 229.5 237.244 229.836 237.388C230.172 237.532 230.404 237.652 230.532 237.748L229.596 239.332C229.436 239.196 229.148 239.04 228.732 238.864C228.324 238.688 227.864 238.6 227.352 238.6C226.84 238.6 226.408 238.692 226.056 238.876C225.704 239.06 225.528 239.336 225.528 239.704C225.528 240.064 225.712 240.352 226.08 240.568C226.456 240.784 226.964 240.964 227.604 241.108C228.132 241.228 228.636 241.396 229.116 241.612C229.596 241.82 229.988 242.12 230.292 242.512C230.604 242.896 230.76 243.412 230.76 244.06C230.76 244.676 230.628 245.192 230.364 245.608C230.108 246.016 229.764 246.344 229.332 246.592C228.9 246.84 228.42 247.016 227.892 247.12C227.372 247.232 226.848 247.288 226.32 247.288C225.672 247.288 225.092 247.224 224.58 247.096C224.076 246.968 223.656 246.82 223.32 246.652C222.984 246.476 222.744 246.328 222.6 246.208L223.536 244.432C223.744 244.632 224.084 244.844 224.556 245.068C225.028 245.284 225.556 245.392 226.14 245.392C226.764 245.392 227.264 245.272 227.64 245.032C228.016 244.792 228.204 244.472 228.204 244.072C228.204 243.776 228.112 243.536 227.928 243.352C227.752 243.168 227.508 243.02 227.196 242.908C226.884 242.796 226.536 242.696 226.152 242.608C225.792 242.52 225.428 242.408 225.06 242.272C224.7 242.128 224.368 241.944 224.064 241.72C223.76 241.488 223.516 241.2 223.332 240.856C223.148 240.512 223.056 240.108 223.056 239.644C223.056 239.052 223.244 238.548 223.62 238.132C223.996 237.716 224.492 237.4 225.108 237.184C225.724 236.968 226.384 236.86 227.088 236.86ZM242.341 233.416H238.225V231.16H248.989V233.416H244.873V247H242.341V233.416ZM257.089 236.86C257.745 236.86 258.385 236.996 259.009 237.268C259.633 237.54 260.145 237.976 260.545 238.576C260.953 239.168 261.157 239.94 261.157 240.892V247H258.577V241.36C258.577 240.472 258.373 239.82 257.965 239.404C257.565 238.98 257.033 238.768 256.369 238.768C255.929 238.768 255.505 238.892 255.097 239.14C254.689 239.388 254.353 239.724 254.089 240.148C253.833 240.572 253.705 241.06 253.705 241.612V247H251.125V230.488H253.705V238.804C253.777 238.532 253.969 238.248 254.281 237.952C254.601 237.648 255.005 237.392 255.493 237.184C255.981 236.968 256.513 236.86 257.089 236.86ZM266.229 247H263.673V237.148H266.229V238.792H266.169C266.225 238.592 266.377 238.344 266.625 238.048C266.881 237.744 267.233 237.472 267.681 237.232C268.129 236.984 268.669 236.86 269.301 236.86C269.757 236.86 270.165 236.924 270.525 237.052C270.885 237.18 271.141 237.308 271.293 237.436L270.261 239.548C270.157 239.42 269.961 239.296 269.673 239.176C269.393 239.048 269.045 238.984 268.629 238.984C268.109 238.984 267.669 239.136 267.309 239.44C266.957 239.744 266.689 240.108 266.505 240.532C266.321 240.956 266.229 241.352 266.229 241.72V247ZM272.727 247V237.148H275.283V247H272.727ZM274.035 234.196C273.603 234.196 273.231 234.04 272.919 233.728C272.615 233.416 272.463 233.044 272.463 232.612C272.463 232.18 272.615 231.808 272.919 231.496C273.231 231.176 273.603 231.016 274.035 231.016C274.323 231.016 274.587 231.092 274.827 231.244C275.075 231.388 275.271 231.58 275.415 231.82C275.567 232.052 275.643 232.316 275.643 232.612C275.643 233.044 275.487 233.416 275.175 233.728C274.863 234.04 274.483 234.196 274.035 234.196ZM277.317 237.148H280.065L283.029 244.648L285.993 237.148H288.729L284.541 247H281.529L277.317 237.148ZM292.323 242.68C292.339 243.2 292.463 243.668 292.695 244.084C292.927 244.5 293.267 244.828 293.715 245.068C294.171 245.3 294.727 245.416 295.383 245.416C295.951 245.416 296.439 245.34 296.847 245.188C297.263 245.028 297.607 244.84 297.879 244.624C298.151 244.4 298.351 244.192 298.479 244L299.619 245.548C299.371 245.884 299.059 246.184 298.683 246.448C298.307 246.712 297.839 246.916 297.279 247.06C296.727 247.212 296.043 247.288 295.227 247.288C294.155 247.288 293.223 247.068 292.431 246.628C291.639 246.188 291.023 245.568 290.583 244.768C290.151 243.968 289.935 243.032 289.935 241.96C289.935 241 290.135 240.136 290.535 239.368C290.935 238.592 291.515 237.98 292.275 237.532C293.043 237.084 293.963 236.86 295.035 236.86C296.035 236.86 296.903 237.06 297.639 237.46C298.375 237.86 298.943 238.436 299.343 239.188C299.751 239.932 299.955 240.832 299.955 241.888C299.955 241.952 299.951 242.084 299.943 242.284C299.943 242.484 299.935 242.616 299.919 242.68H292.323ZM297.555 240.808C297.547 240.552 297.459 240.26 297.291 239.932C297.131 239.604 296.871 239.32 296.511 239.08C296.151 238.832 295.671 238.708 295.071 238.708C294.455 238.708 293.955 238.828 293.571 239.068C293.187 239.3 292.903 239.58 292.719 239.908C292.535 240.228 292.427 240.528 292.395 240.808H297.555Z" fill="#B80000"/>
<circle cx="112.5" cy="175.5" r="6.5" fill="#B80000"/>
<defs>
<clipPath id="clip0_54_360">
<rect width="306.846" height="127.495" fill="white" transform="matrix(-0.999988 0.00494156 -0.00512342 -0.999987 323.014 143.493)"/>
</clipPath>
<clipPath id="clip1_54_360">
<rect width="306.846" height="127.495" fill="white" transform="matrix(0.999967 0.00813971 -0.00795786 0.999968 17.0146 274)"/>
</clipPath>
</defs>
</svg>
